# Blender v3.0.0 OBJ File: 'Barrel.blend'
# www.blender.org
o Cylinder
v 0.000000 0.000000 -0.783522
v 0.000000 2.000000 -0.783522
v 0.554033 0.000000 -0.554033
v 0.554033 2.000000 -0.554033
v 0.783522 0.000000 0.000000
v 0.783522 2.000000 0.000000
v 0.554033 0.000000 0.554033
v 0.554033 2.000000 0.554033
v -0.000000 0.000000 0.783522
v -0.000000 2.000000 0.783522
v -0.554033 0.000000 0.554033
v -0.554033 2.000000 0.554033
v -0.783522 0.000000 -0.000000
v -0.783522 2.000000 -0.000000
v -0.554034 0.000000 -0.554033
v -0.554034 2.000000 -0.554033
v 0.000000 0.621683 -1.134950
v 0.000000 1.378317 -1.134950
v 0.802531 1.378317 -0.802531
v 0.802531 0.621683 -0.802531
v 1.134950 1.378317 0.000000
v 1.134950 0.621683 0.000000
v 0.802531 1.378317 0.802531
v 0.802531 0.621683 0.802531
v -0.000000 1.378317 1.134950
v -0.000000 0.621683 1.134950
v -0.802531 1.378317 0.802531
v -0.802531 0.621683 0.802531
v -1.134950 1.378317 -0.000000
v -1.134950 0.621683 -0.000000
v -0.802531 1.378317 -0.802531
v -0.802531 0.621683 -0.802531
v 0.707107 2.000000 -0.707107
v 0.000000 2.000000 -1.000000
v 1.000000 2.000000 0.000000
v 0.707107 2.000000 0.707107
v -0.000000 2.000000 1.000000
v -0.707107 2.000000 0.707107
v -1.000000 2.000000 -0.000000
v -0.707107 2.000000 -0.707107
v 0.000000 0.000000 -1.000000
v 0.707107 0.000000 -0.707107
v 1.000000 0.000000 0.000000
v 0.707107 0.000000 0.707107
v -0.000000 0.000000 1.000000
v -0.707107 0.000000 0.707107
v -1.000000 0.000000 -0.000000
v -0.707107 0.000000 -0.707107
v 0.000000 1.800000 -0.783522
v 0.554033 1.800000 -0.554033
v 0.783522 1.800000 0.000000
v 0.554033 1.800000 0.554033
v -0.000000 1.800000 0.783522
v -0.554033 1.800000 0.554033
v -0.783522 1.800000 -0.000000
v -0.554034 1.800000 -0.554033
v 0.000000 0.200000 -0.783522
v 0.554033 0.200000 -0.554033
v 0.783522 0.200000 0.000000
v 0.554033 0.200000 0.554033
v -0.000000 0.200000 0.783522
v -0.554033 0.200000 0.554033
v -0.783522 0.200000 -0.000000
v -0.554034 0.200000 -0.554033
vt 0.350803 0.754745
vt 0.260513 0.871086
vt 0.260513 0.747391
vt 0.350803 0.878440
vt 0.260513 0.994782
vt 0.350803 0.012572
vt 0.260513 0.128914
vt 0.260513 0.005218
vt 0.350803 0.136268
vt 0.260513 0.252609
vt 0.350803 0.259963
vt 0.260513 0.376304
vt 0.350803 0.383658
vt 0.260513 0.500000
vt 0.379283 0.890237
vt 0.407763 0.975631
vt 0.379283 0.975631
vt 0.350803 0.507354
vt 0.260513 0.623695
vt 0.350803 0.631049
vt 0.033698 0.728240
vt 0.005218 0.642846
vt 0.033698 0.642846
vt 0.152468 0.623695
vt 0.062178 0.740037
vt 0.062178 0.631049
vt 0.152468 0.747391
vt 0.152468 0.500000
vt 0.062178 0.616341
vt 0.062178 0.507354
vt 0.152468 0.376304
vt 0.062178 0.492646
vt 0.062178 0.383658
vt 0.152468 0.252609
vt 0.062178 0.368951
vt 0.062178 0.259963
vt 0.152468 0.128914
vt 0.062178 0.245255
vt 0.062178 0.136268
vt 0.152468 0.005218
vt 0.062178 0.121560
vt 0.062178 0.012572
vt 0.152468 0.871086
vt 0.062178 0.987428
vt 0.062178 0.878440
vt 0.152468 0.994782
vt 0.062178 0.863733
vt 0.062178 0.754745
vt 0.379283 0.766541
vt 0.350803 0.863732
vt 0.350803 0.987428
vt 0.379283 0.109763
vt 0.379283 0.024369
vt 0.379283 0.148064
vt 0.350803 0.245255
vt 0.379283 0.271760
vt 0.350803 0.368951
vt 0.379283 0.480849
vt 0.379283 0.395455
vt 0.379283 0.519151
vt 0.350803 0.616341
vt 0.379283 0.728240
vt 0.379283 0.642846
vt 0.033698 0.766541
vt 0.033698 0.851936
vt 0.033698 0.890237
vt 0.033698 0.975631
vt 0.033698 0.024369
vt 0.033698 0.109763
vt 0.033698 0.148064
vt 0.033698 0.233458
vt 0.033698 0.271760
vt 0.033698 0.357154
vt 0.033698 0.395455
vt 0.033698 0.480849
vt 0.033698 0.519151
vt 0.033698 0.604545
vt 0.538503 0.048187
vt 0.684340 0.108595
vt 0.623933 0.254432
vt 0.407763 0.604545
vt 0.379283 0.604545
vt 0.407763 0.357154
vt 0.379283 0.357154
vt 0.407763 0.109763
vt 0.407763 0.851936
vt 0.379283 0.851936
vt 0.407763 0.728240
vt 0.407763 0.480849
vt 0.407763 0.233458
vt 0.379283 0.233458
vt 0.478095 0.107829
vt 0.623932 0.047421
vt 0.684340 0.193258
vt 0.005218 0.395455
vt 0.005218 0.148064
vt 0.005218 0.890237
vt 0.005218 0.519151
vt 0.005218 0.271760
vt 0.005218 0.024369
vt 0.005218 0.766542
vt 0.350803 0.121560
vt 0.350803 0.492646
vt 0.407763 0.890237
vt 0.350803 0.740037
vt 0.005218 0.728240
vt 0.538503 0.254432
vt 0.478095 0.194024
vt 0.478095 0.108595
vt 0.623933 0.048187
vt 0.684340 0.194025
vt 0.407763 0.519151
vt 0.407763 0.271760
vt 0.407763 0.024369
vt 0.407763 0.766542
vt 0.407763 0.642846
vt 0.407763 0.395455
vt 0.407763 0.148064
vt 0.623933 0.253666
vt 0.538503 0.253666
vt 0.478095 0.193258
vt 0.538503 0.047421
vt 0.684340 0.107829
vt 0.005218 0.480849
vt 0.005218 0.233458
vt 0.005218 0.975631
vt 0.005218 0.604545
vt 0.005218 0.357154
vt 0.005218 0.109763
vt 0.005218 0.851936
vn 0.3752 0.1966 -0.9058
vn 0.9058 0.1966 -0.3752
vn 0.9058 0.1966 0.3752
vn 0.3752 0.1966 0.9058
vn -0.3752 0.1966 0.9058
vn -0.9058 0.1966 0.3752
vn -0.9239 0.0000 0.3827
vn -0.9058 0.1966 -0.3752
vn -0.3752 0.1966 -0.9058
vn 0.3827 0.0000 0.9239
vn -0.3752 -0.1966 -0.9058
vn -0.3827 0.0000 -0.9239
vn -0.9058 -0.1966 -0.3752
vn -0.9239 0.0000 -0.3827
vn -0.9058 -0.1966 0.3752
vn -0.3752 -0.1966 0.9058
vn -0.3827 0.0000 0.9239
vn 0.3752 -0.1966 0.9058
vn 0.9058 -0.1966 0.3752
vn 0.9239 0.0000 0.3827
vn 0.9058 -0.1966 -0.3752
vn 0.9239 0.0000 -0.3827
vn 0.3752 -0.1966 -0.9058
vn 0.3827 0.0000 -0.9239
vn 0.0000 1.0000 0.0000
vn 0.0000 -1.0000 0.0000
s off
f 34/1/1 19/2/1 18/3/1
f 33/4/2 21/5/2 19/2/2
f 35/6/3 23/7/3 21/8/3
f 36/9/4 25/10/4 23/7/4
f 37/11/5 27/12/5 25/10/5
f 38/13/6 29/14/6 27/12/6
f 4/15/7 51/16/7 6/17/7
f 39/18/8 31/19/8 29/14/8
f 40/20/9 18/3/9 31/19/9
f 1/21/10 64/22/10 15/23/10
f 32/24/11 41/25/11 48/26/11
f 31/19/12 17/27/12 32/24/12
f 30/28/13 48/29/13 47/30/13
f 29/14/14 32/24/14 30/28/14
f 28/31/15 47/32/15 46/33/15
f 27/12/7 30/28/7 28/31/7
f 26/34/16 46/35/16 45/36/16
f 25/10/17 28/31/17 26/34/17
f 24/37/18 45/38/18 44/39/18
f 23/7/10 26/34/10 24/37/10
f 22/40/19 44/41/19 43/42/19
f 21/8/20 24/37/20 22/40/20
f 20/43/21 43/44/21 42/45/21
f 19/2/22 22/46/22 20/43/22
f 17/27/23 42/47/23 41/48/23
f 18/3/24 20/43/24 17/27/24
f 2/49/25 33/50/25 34/1/25
f 4/15/25 35/51/25 33/4/25
f 8/52/25 35/6/25 6/53/25
f 8/54/25 37/55/25 36/9/25
f 10/56/25 38/57/25 37/11/25
f 14/58/25 38/13/25 12/59/25
f 14/60/25 40/61/25 39/18/25
f 2/62/25 40/20/25 16/63/25
f 1/64/26 42/47/26 3/65/26
f 3/66/26 43/44/26 5/67/26
f 5/68/26 44/41/26 7/69/26
f 7/70/26 45/38/26 9/71/26
f 9/72/26 46/35/26 11/73/26
f 11/74/26 47/32/26 13/75/26
f 13/76/26 48/29/26 15/77/26
f 15/23/26 41/25/26 1/21/26
f 55/78/25 53/79/25 51/80/25
f 14/60/20 56/81/20 16/82/20
f 10/56/24 54/83/24 12/84/24
f 6/53/14 52/85/14 8/52/14
f 2/49/17 50/86/17 4/87/17
f 16/63/10 49/88/10 2/62/10
f 12/59/22 55/89/22 14/58/22
f 8/54/12 53/90/12 10/91/12
f 60/92/26 62/93/26 64/94/26
f 13/75/22 62/95/22 11/74/22
f 9/71/12 60/96/12 7/70/12
f 5/67/7 58/97/7 3/66/7
f 15/77/20 63/98/20 13/76/20
f 11/73/24 61/99/24 9/72/24
f 7/69/14 59/100/14 5/68/14
f 3/65/17 57/101/17 1/64/17
f 34/1/1 33/50/1 19/2/1
f 33/4/2 35/51/2 21/5/2
f 35/6/3 36/102/3 23/7/3
f 36/9/4 37/55/4 25/10/4
f 37/11/5 38/57/5 27/12/5
f 38/13/6 39/103/6 29/14/6
f 4/15/7 50/104/7 51/16/7
f 39/18/8 40/61/8 31/19/8
f 40/20/9 34/105/9 18/3/9
f 1/21/10 57/106/10 64/22/10
f 32/24/11 17/27/11 41/25/11
f 31/19/12 18/3/12 17/27/12
f 30/28/13 32/24/13 48/29/13
f 29/14/14 31/19/14 32/24/14
f 28/31/15 30/28/15 47/32/15
f 27/12/7 29/14/7 30/28/7
f 26/34/16 28/31/16 46/35/16
f 25/10/17 27/12/17 28/31/17
f 24/37/18 26/34/18 45/38/18
f 23/7/10 25/10/10 26/34/10
f 22/40/19 24/37/19 44/41/19
f 21/8/20 23/7/20 24/37/20
f 20/43/21 22/46/21 43/44/21
f 19/2/22 21/5/22 22/46/22
f 17/27/23 20/43/23 42/47/23
f 18/3/24 19/2/24 20/43/24
f 2/49/25 4/87/25 33/50/25
f 4/15/25 6/17/25 35/51/25
f 8/52/25 36/102/25 35/6/25
f 8/54/25 10/91/25 37/55/25
f 10/56/25 12/84/25 38/57/25
f 14/58/25 39/103/25 38/13/25
f 14/60/25 16/82/25 40/61/25
f 2/62/25 34/105/25 40/20/25
f 1/64/26 41/48/26 42/47/26
f 3/66/26 42/45/26 43/44/26
f 5/68/26 43/42/26 44/41/26
f 7/70/26 44/39/26 45/38/26
f 9/72/26 45/36/26 46/35/26
f 11/74/26 46/33/26 47/32/26
f 13/76/26 47/30/26 48/29/26
f 15/23/26 48/26/26 41/25/26
f 51/80/25 50/107/25 49/108/25
f 49/108/25 56/109/25 55/78/25
f 55/78/25 54/110/25 53/79/25
f 53/79/25 52/111/25 51/80/25
f 51/80/25 49/108/25 55/78/25
f 14/60/20 55/112/20 56/81/20
f 10/56/24 53/113/24 54/83/24
f 6/53/14 51/114/14 52/85/14
f 2/49/17 49/115/17 50/86/17
f 16/63/10 56/116/10 49/88/10
f 12/59/22 54/117/22 55/89/22
f 8/54/12 52/118/12 53/90/12
f 64/94/26 57/119/26 60/92/26
f 57/119/26 58/120/26 60/92/26
f 58/120/26 59/121/26 60/92/26
f 60/92/26 61/122/26 62/93/26
f 62/93/26 63/123/26 64/94/26
f 13/75/22 63/124/22 62/95/22
f 9/71/12 61/125/12 60/96/12
f 5/67/7 59/126/7 58/97/7
f 15/77/20 64/127/20 63/98/20
f 11/73/24 62/128/24 61/99/24
f 7/69/14 60/129/14 59/100/14
f 3/65/17 58/130/17 57/101/17
