# Blender v3.0.0 OBJ File: 'Rocks.blend'
# www.blender.org
o Cube.002
v 0.444264 0.651634 -0.248756
v 0.628276 0.289642 -0.278496
v 0.615784 0.002162 -0.186818
v 0.793777 0.177310 -0.169752
v 0.248834 0.078213 -0.369535
v 0.193682 0.183974 0.434369
v 0.222654 0.303420 0.426662
v 0.466196 0.754386 -0.159599
v 0.179427 0.770993 -0.058637
v -0.166697 0.691779 0.184398
v 0.254553 0.356705 0.415368
v -0.228409 0.016390 -0.451573
v -0.477356 0.115291 -0.473506
v -0.568864 0.120701 -0.441186
v -0.583177 0.322883 -0.248621
v -0.585334 0.474493 0.156228
v -0.578107 0.027348 0.321713
v -0.580123 0.123676 -0.435058
v -0.580066 0.120051 -0.435517
v 0.861495 0.224072 -0.066340
v 0.800532 0.112249 0.180589
v 0.660932 0.353855 0.247044
v 0.687783 0.573996 -0.033057
v 0.601113 -0.017607 -0.162224
v 0.495411 -0.018047 -0.231516
v 0.305976 -0.018560 -0.312418
v 0.682638 -0.015149 0.224821
v 0.298184 -0.014139 0.384003
v -0.182497 -0.019274 -0.424790
v -0.301019 -0.014212 0.372437
v -0.577749 -0.018203 -0.256094
v -0.577437 -0.014506 0.326224
v 0.704088 1.914780 -1.140343
v 1.169124 0.506177 -0.540506
v 1.145092 1.190911 -0.900852
v -2.046267 0.799650 -1.066622
v -0.391024 2.254375 -0.950389
v -1.214345 2.035426 -0.953003
v -0.889805 2.015799 -0.652225
v 1.204095 0.988795 -1.115969
v -0.331315 0.524213 -3.589288
v -0.282005 2.465296 -2.608703
v -1.052936 2.259191 -1.464194
v -0.611749 2.425878 -1.602465
v -1.141787 2.083054 -2.947798
v 0.094626 2.362624 -2.768629
v -0.032398 2.406566 -2.777090
v 0.449625 1.556387 -3.100689
v 0.000150 0.690605 -3.662177
v 0.163053 0.544577 -3.697999
v 0.256983 0.520479 -3.687372
v -0.750972 2.233132 -3.044604
v -0.280387 2.446250 -2.817605
v 1.219001 0.105537 -0.551474
v 1.282483 0.131313 -0.963799
v -2.017717 0.224740 -0.936792
v -0.255934 0.825121 -0.227140
v -1.991228 0.406450 -0.816329
v -0.869778 1.100401 -0.166373
v 0.984597 0.032903 -0.499929
v -2.093248 0.237951 -1.280275
v -2.081985 0.741865 -1.229052
v -1.536288 1.498528 -2.952135
v -1.515160 0.380512 -3.222773
v 0.485747 -0.030192 -3.111200
v 0.673339 -0.030192 -2.608167
v 0.774783 -0.030192 -0.579099
v -1.533549 -0.030192 -1.008758
v -1.679972 -0.030192 -2.734744
v -1.749770 -0.030192 -2.497151
v 0.830044 0.380570 2.139843
v -1.751498 1.651152 1.529967
v -0.027590 1.054591 2.471460
v -0.752441 1.507740 2.318253
v -0.642906 0.985386 2.666603
v -0.647452 1.806267 -0.569382
v 0.732589 2.925151 -1.392038
v 0.916021 2.727165 0.696201
v -0.309562 2.005688 1.856710
v 0.160956 1.923029 1.804630
v 0.270972 3.471884 0.076840
v 1.260500 2.595738 0.481620
v 1.176985 2.706278 0.487678
v 1.448158 2.355521 -0.281584
v 1.084283 2.849351 -1.375334
v 1.185385 2.716604 -1.481022
v 1.247704 2.634019 -1.476334
v 0.676297 3.374035 0.061124
v 1.010854 2.926722 0.449160
v -0.275329 1.601355 -0.631977
v 0.960737 1.599286 -1.053176
v -1.971633 1.261701 1.391600
v -1.950662 1.200132 1.620774
v -1.146715 0.103299 2.762504
v -1.118940 0.375258 0.927388
v -0.903047 0.118253 1.006876
v -1.864092 1.659989 1.003798
v -1.720809 1.812657 1.314564
v -0.225924 3.491042 -0.239879
v -0.432206 3.278713 -1.105638
v -0.975487 2.672112 -0.729568
v 0.834583 -0.001202 2.108819
v 0.995027 -0.001644 1.463140
v 0.761090 -0.000999 0.551630
v -0.812943 0.003337 1.086361
v -1.053222 0.003998 2.724355
vt 0.582594 0.637998
vt 0.575082 0.721791
vt 0.601909 0.659673
vt 0.591142 0.698354
vt 0.375000 0.360026
vt 0.604127 0.609530
vt 0.589712 0.486187
vt 0.591738 0.485387
vt 0.592631 0.487442
vt 0.554178 0.525556
vt 0.493868 0.468825
vt 0.509184 0.583765
vt 0.528242 0.514433
vt 0.433515 0.610165
vt 0.470101 0.733570
vt 0.537074 0.684294
vt 0.558381 0.452402
vt 0.317441 0.479180
vt 0.363486 0.478770
vt 0.398144 0.501019
vt 0.375000 0.496012
vt 0.604127 0.606285
vt 0.566092 0.730199
vt 0.559189 0.737812
vt 0.541727 0.436233
vt 0.358501 0.529735
vt 0.334266 0.357821
vt 0.642214 0.537025
vt 0.554508 0.448529
vt 0.659090 0.562686
vt 0.456742 0.769465
vt 0.470101 0.733778
vt 0.212950 0.619543
vt 0.309362 0.635745
vt 0.239230 0.652929
vt 0.300219 0.657340
vt 0.563936 0.686951
vt 0.456742 0.769119
vt 0.608441 0.561726
vt 0.608245 0.570398
vt 0.602452 0.519200
vt 0.563936 0.686951
vt 0.582594 0.637998
vt 0.587975 0.709733
vt 0.566092 0.730199
vt 0.466929 0.839572
vt 0.490354 0.679671
vt 0.573028 0.442330
vt 0.636619 0.591013
vt 0.601909 0.659673
vt 0.598128 0.500092
vt 0.607000 0.561394
vt 0.446062 0.167939
vt 0.458668 0.193651
vt 0.447604 0.206287
vt 0.481790 0.472867
vt 0.554178 0.525556
vt 0.416502 0.478298
vt 0.444695 0.520646
vt 0.303068 0.479308
vt 0.374203 0.761769
vt 0.274693 0.479287
vt 0.468859 0.631188
vt 0.497582 0.501284
vt 0.408840 0.534960
vt 0.414343 0.516777
vt 0.605543 0.572920
vt 0.440958 0.338368
vt 0.431902 0.283654
vt 0.548013 0.509188
vt 0.462551 0.852360
vt 0.462551 0.853845
vt 0.424375 0.857819
vt 0.437140 0.821830
vt 0.424375 0.426545
vt 0.404060 0.196032
vt 0.404060 0.502299
vt 0.429556 0.148647
vt 0.404060 0.311655
vt 0.401729 0.534222
vt 0.577887 0.447190
vt 0.385963 0.393392
vt 0.373369 0.414920
vt 0.608441 0.561726
vt 0.608245 0.570398
vt 0.602452 0.519200
vt 0.582594 0.637998
vt 0.566092 0.730199
vt 0.563936 0.686951
vt 0.466929 0.839572
vt 0.573028 0.442330
vt 0.636619 0.591013
vt 0.601909 0.659673
vt 0.598128 0.500092
vt 0.605543 0.572920
vt 0.446062 0.167939
vt 0.458668 0.193651
vt 0.447604 0.206287
vt 0.493868 0.468825
vt 0.362783 0.530179
vt 0.363486 0.478770
vt 0.358501 0.529735
vt 0.331465 0.337951
vt 0.201807 0.617670
vt 0.309362 0.635745
vt 0.300219 0.657340
vt 0.462551 0.853845
vt 0.400917 0.293877
vt 0.424375 0.426545
vt 0.266664 0.484524
vt 0.431902 0.283654
vt 0.373369 0.414920
vt 0.440958 0.338368
vt 0.462551 0.852360
vt 0.587975 0.709733
vt 0.548013 0.509188
vt 0.424375 0.857819
vt 0.466929 0.841245
vt 0.375000 0.496012
vt 0.423374 0.506477
vt 0.437140 0.821830
vt 0.577887 0.447190
vt 0.494511 0.469468
vt 0.661615 0.563580
vt 0.528242 0.514433
vt 0.485704 0.669183
vt 0.210856 0.628084
vt 0.359141 0.740509
vt 0.597095 0.500691
vt 0.606724 0.591830
vt 0.362783 0.530179
vt 0.494511 0.469468
vt 0.639063 0.532712
vt 0.257690 0.527048
vt 0.437140 0.821283
vt 0.373587 0.414702
vt 0.661615 0.563580
vt 0.403544 0.280552
vt 0.548013 0.404331
vt 0.605543 0.618491
vt 0.466929 0.841245
vt 0.423374 0.831174
vt 0.423374 0.506477
vt 0.279274 0.474706
vt 0.437140 0.821283
vt 0.490354 0.679671
vt 0.373587 0.414702
vt 0.385963 0.393392
vt 0.554178 0.525556
vt 0.607000 0.561394
vt 0.271600 0.479588
vt 0.200367 0.650119
vt 0.429556 0.148647
vt 0.548013 0.404331
vt 0.375000 0.273374
vt 0.605543 0.618491
vt 0.423374 0.831174
vt 0.400917 0.160364
vn 0.3758 -0.2963 -0.8780
vn -0.0000 -1.0000 0.0063
vn -0.4539 0.1048 -0.8849
vn 0.1478 0.1554 -0.9767
vn 0.2588 0.7472 0.6121
vn 0.8421 0.3818 0.3808
vn -0.4193 0.8494 -0.3203
vn -0.0186 -0.2556 0.9666
vn 0.2056 -0.4046 -0.8911
vn 0.3141 -0.8227 -0.4739
vn -0.2532 -0.7679 -0.5884
vn -0.2348 0.3340 0.9128
vn -0.2132 0.6659 -0.7150
vn 0.3823 -0.0331 0.9235
vn 0.6765 0.3950 -0.6216
vn -0.9999 -0.0159 0.0006
vn -0.1641 0.1031 0.9810
vn 0.7011 -0.6985 -0.1432
vn 0.1714 0.9812 -0.0881
vn -0.2442 0.9143 0.3231
vn -0.6236 0.3558 0.6961
vn 0.2137 0.4510 -0.8665
vn 0.3154 0.9386 0.1401
vn -0.3758 0.9226 -0.0870
vn -0.2148 -0.0000 -0.9767
vn 0.8649 0.4618 -0.1967
vn 0.9804 0.1177 0.1583
vn -0.0000 -1.0000 -0.0000
vn 0.2871 0.4540 0.8435
vn 0.2148 -0.0000 0.9767
vn -0.3127 0.2179 -0.9245
vn -0.8287 0.5594 -0.0168
vn -0.9767 0.0000 0.2148
vn -0.4571 -0.8869 0.0664
vn -0.9583 0.0500 -0.2815
vn -0.1552 -0.5300 0.8337
vn 0.2930 -0.9560 -0.0146
vn 0.9367 0.0236 -0.3493
vn -0.1151 -0.7405 -0.6621
vn 0.5548 0.5301 0.6412
vn 0.1888 0.5719 0.7983
vn -0.5360 0.3877 0.7499
vn 0.7980 0.6026 0.0066
vn 0.5898 0.4074 0.6973
vn 0.2002 0.7232 0.6610
vn 0.1826 0.6938 -0.6967
vn -0.0028 -1.0000 -0.0000
vn -0.2398 -0.6724 -0.7003
vn -0.4347 -0.5786 -0.6901
vn -0.7412 0.6712 0.0120
vn -0.3096 -0.2851 -0.9071
vn 0.2149 0.9354 -0.2806
vn -0.3144 0.7805 0.5404
vn -0.8819 0.4289 0.1959
vn -0.7145 -0.3794 -0.5878
vn -0.7443 -0.6589 -0.1089
vn 0.9083 -0.3473 -0.2333
vn 0.9705 -0.0081 0.2412
vn 0.3090 -0.0734 0.9482
vn 0.2138 0.4510 -0.8665
vn 0.9803 0.1177 0.1583
s off
f 2/1/1 25/2/1 5/3/1
f 26/4/2 30/5/2 29/6/2
f 19/7/3 18/8/3 14/9/3
f 5/3/4 1/10/4 2/1/4
f 9/11/5 23/12/5 8/13/5
f 22/14/6 21/15/6 20/16/6
f 15/17/7 16/18/7 10/19/7
f 30/5/8 28/20/8 6/21/8
f 5/3/9 26/4/9 29/22/9
f 25/2/10 3/23/10 24/24/10
f 14/9/11 31/25/11 19/7/11
f 7/26/12 16/18/12 17/27/12
f 14/28/13 15/29/13 13/30/13
f 22/14/14 27/31/14 21/32/14
f 2/1/15 1/10/15 23/12/15
f 15/17/16 31/25/16 17/33/16
f 7/34/17 30/35/17 6/36/17
f 4/37/18 21/15/18 27/38/18
f 53/39/19 42/40/19 47/41/19
f 39/42/20 37/43/20 43/44/20
f 38/45/21 36/46/21 59/47/21
f 53/39/22 48/48/22 52/49/22
f 44/50/23 46/51/23 42/40/23
f 44/50/24 42/40/24 52/52/24
f 41/53/25 49/54/25 50/55/25
f 40/56/26 48/48/26 33/57/26
f 55/58/27 40/56/27 34/59/27
f 66/60/28 68/61/28 65/62/28
f 37/43/29 57/63/29 35/64/29
f 60/65/30 54/66/30 34/59/30
f 45/67/31 49/68/31 41/69/31
f 36/46/32 63/70/32 62/71/32
f 62/72/33 61/73/33 58/74/33
f 61/75/34 70/76/34 68/77/34
f 62/72/35 64/78/35 70/79/35
f 67/80/36 57/63/36 68/61/36
f 60/65/37 67/80/37 55/58/37
f 48/81/38 40/56/38 66/60/38
f 65/62/39 50/82/39 51/83/39
f 89/84/40 78/85/40 83/86/40
f 73/87/41 74/88/41 75/89/41
f 72/90/42 75/89/42 74/88/42
f 89/84/43 84/91/43 88/92/43
f 80/93/44 82/94/44 78/85/44
f 89/84/45 81/95/45 78/85/45
f 77/96/46 85/97/46 86/98/46
f 103/99/47 105/100/47 104/101/47
f 96/102/48 90/103/48 104/101/48
f 90/104/49 96/105/49 95/106/49
f 98/107/50 101/108/50 97/109/50
f 91/110/51 77/111/51 87/112/51
f 81/95/52 85/113/52 77/111/52
f 98/114/53 79/115/53 99/116/53
f 97/117/54 72/118/54 98/107/54
f 97/109/55 95/119/55 92/120/55
f 96/102/56 93/121/56 95/106/56
f 104/101/57 84/122/57 103/123/57
f 82/124/58 103/99/58 84/91/58
f 102/125/59 75/89/59 106/126/59
f 26/4/1 5/3/1 25/2/1
f 25/2/1 2/1/1 3/23/1
f 3/23/1 2/1/1 4/37/1
f 29/6/2 32/127/2 31/25/2
f 32/127/2 29/6/2 30/5/2
f 30/5/2 26/4/2 28/128/2
f 28/128/2 24/24/2 27/38/2
f 24/24/2 28/128/2 25/2/2
f 25/2/2 28/128/2 26/4/2
f 1/10/4 5/3/4 13/129/4
f 13/129/4 5/3/4 12/130/4
f 23/12/5 9/11/5 22/14/5
f 22/14/5 9/11/5 11/131/5
f 11/131/5 9/11/5 10/19/5
f 22/14/6 20/16/6 23/12/6
f 15/17/7 10/19/7 9/132/7
f 5/3/9 29/22/9 12/130/9
f 31/25/11 12/130/11 29/6/11
f 12/130/11 31/25/11 13/30/11
f 13/30/11 31/25/11 14/9/11
f 16/18/12 7/26/12 10/19/12
f 10/19/12 7/26/12 11/131/12
f 13/30/13 9/11/13 1/10/13
f 1/10/13 9/11/13 8/13/13
f 9/11/13 13/30/13 15/29/13
f 15/29/13 14/28/13 18/133/13
f 27/31/14 6/36/14 28/128/14
f 6/36/14 27/31/14 7/26/14
f 7/26/14 27/31/14 11/131/14
f 11/131/14 27/31/14 22/14/14
f 2/1/15 23/12/15 4/37/15
f 4/37/15 23/12/15 20/16/15
f 23/12/15 1/10/15 8/13/15
f 19/7/16 31/25/16 18/8/16
f 18/8/16 31/25/16 15/17/16
f 15/17/16 17/33/16 16/18/16
f 17/33/16 31/25/16 32/134/16
f 32/127/17 30/35/17 17/33/17
f 17/33/17 30/35/17 7/34/17
f 21/15/18 4/37/18 20/16/18
f 4/37/18 27/38/18 3/23/18
f 3/23/18 27/38/18 24/24/18
f 38/45/20 39/42/20 43/44/20
f 43/44/20 37/43/20 44/50/20
f 39/42/21 38/45/21 59/47/21
f 59/47/21 36/46/21 58/135/21
f 52/49/22 48/48/22 49/68/22
f 49/68/60 51/136/60 50/82/60
f 48/48/22 51/136/22 49/68/22
f 48/48/22 47/41/22 46/51/22
f 47/41/22 48/48/22 53/39/22
f 42/40/23 46/51/23 47/41/23
f 46/51/23 44/50/23 33/57/23
f 33/57/23 44/50/23 37/43/23
f 44/50/24 52/52/24 43/44/24
f 43/44/24 52/52/24 45/67/24
f 52/52/24 42/40/24 53/39/24
f 35/64/26 40/56/26 33/57/26
f 33/57/26 48/48/26 46/137/26
f 54/66/27 55/58/27 34/59/27
f 34/59/61 40/56/61 35/64/61
f 69/138/28 65/62/28 70/79/28
f 70/79/28 65/62/28 68/61/28
f 68/61/28 66/60/28 67/80/28
f 59/47/29 57/63/29 39/42/29
f 39/42/29 57/63/29 37/43/29
f 37/43/29 35/64/29 33/57/29
f 35/64/29 57/63/29 34/59/29
f 60/65/30 34/59/30 57/63/30
f 49/68/31 45/67/31 52/49/31
f 45/67/31 41/69/31 63/139/31
f 63/139/31 41/69/31 64/78/31
f 45/140/32 63/70/32 43/44/32
f 43/44/32 63/70/32 38/45/32
f 38/45/32 63/70/32 36/46/32
f 36/141/33 62/72/33 58/74/33
f 58/74/33 61/73/33 56/142/33
f 61/75/34 68/77/34 56/143/34
f 64/78/35 62/72/35 63/139/35
f 62/72/35 70/79/35 61/75/35
f 70/79/35 64/78/35 69/138/35
f 68/61/36 58/74/36 56/142/36
f 58/74/36 68/61/36 59/47/36
f 59/47/36 68/61/36 57/63/36
f 57/63/36 67/80/36 60/65/36
f 54/66/37 60/65/37 55/58/37
f 55/58/37 67/80/37 66/60/37
f 48/81/38 65/144/38 51/136/38
f 65/144/38 48/81/38 66/60/38
f 66/60/38 40/56/38 55/58/38
f 50/82/39 65/62/39 41/69/39
f 41/69/39 65/62/39 64/78/39
f 64/78/39 65/62/39 69/138/39
f 74/88/41 73/87/41 79/115/41
f 79/115/41 73/87/41 80/93/41
f 75/89/42 93/145/42 94/146/42
f 93/145/42 75/89/42 72/90/42
f 88/92/43 84/91/43 85/113/43
f 85/113/43 87/147/43 86/148/43
f 84/91/43 87/147/43 85/113/43
f 84/91/43 83/86/43 82/94/43
f 83/86/43 84/91/43 89/84/43
f 78/85/44 82/94/44 83/86/44
f 82/94/44 80/93/44 71/149/44
f 71/149/44 80/93/44 73/87/44
f 80/93/45 78/85/45 79/115/45
f 79/115/45 78/85/45 81/95/45
f 81/95/45 89/84/45 88/150/45
f 105/100/47 102/125/47 106/126/47
f 102/125/47 105/100/47 103/99/47
f 105/100/48 96/102/48 104/101/48
f 104/101/48 90/103/48 91/151/48
f 90/104/49 95/106/49 76/152/49
f 100/153/50 101/108/50 99/154/50
f 99/154/50 101/108/50 98/107/50
f 86/148/51 87/112/51 77/111/51
f 77/111/51 91/110/51 100/153/51
f 100/153/51 91/110/51 101/108/51
f 101/108/51 90/103/51 76/155/51
f 91/110/51 90/103/51 101/108/51
f 85/113/52 81/95/52 88/92/52
f 81/95/52 77/111/52 99/154/52
f 99/154/52 77/111/52 100/153/52
f 81/156/53 99/116/53 79/115/53
f 79/115/53 98/114/53 74/88/53
f 74/88/53 98/114/53 72/90/53
f 72/118/54 92/157/54 93/121/54
f 92/157/54 72/118/54 97/117/54
f 95/119/55 97/109/55 76/155/55
f 76/155/55 97/109/55 101/158/55
f 95/106/56 93/121/56 92/157/56
f 93/121/56 105/100/56 94/146/56
f 94/146/56 105/100/56 106/126/56
f 93/121/56 96/102/56 105/100/56
f 84/122/57 91/151/57 87/147/57
f 91/151/57 84/122/57 104/101/57
f 102/125/58 103/99/58 71/149/58
f 71/149/58 103/99/58 82/124/58
f 94/146/59 106/126/59 75/89/59
f 75/89/59 102/125/59 73/87/59
f 73/87/59 102/125/59 71/149/59
