# Blender v3.0.0 OBJ File: 'cactus.blend'
# www.blender.org
o Normal_Cactus_Circle
v 0.000000 0.000000 -0.012659
v -0.008951 0.000000 -0.008951
v -0.012659 0.000000 0.000000
v -0.008951 0.000000 0.008951
v 0.000000 0.000000 0.012659
v 0.008951 0.000000 0.008951
v 0.012659 0.000000 0.000000
v 0.008951 0.000000 -0.008951
v 0.001429 0.060574 -0.013600
v -0.008188 0.060574 -0.009617
v -0.012171 0.060574 0.000000
v -0.008188 0.060574 0.009617
v 0.001429 0.060574 0.013600
v 0.011045 0.060574 0.009617
v 0.015029 0.060574 0.000000
v 0.011045 0.060574 -0.009617
v -0.003064 0.156349 -0.015369
v -0.013267 0.156490 -0.011205
v -0.017537 0.157030 -0.001058
v -0.013372 0.157652 0.009128
v -0.003211 0.157992 0.013385
v 0.006992 0.157851 0.009221
v 0.011262 0.157312 -0.000926
v 0.007097 0.156690 -0.011111
v -0.002109 0.235710 -0.019098
v -0.011748 0.235843 -0.015165
v -0.015781 0.236353 -0.005580
v -0.011846 0.236941 0.004041
v -0.002249 0.237262 0.008063
v 0.007390 0.237129 0.004129
v 0.011423 0.236619 -0.005456
v 0.007489 0.236032 -0.015077
v -0.002180 0.241095 -0.015006
v -0.008706 0.241185 -0.012343
v -0.011437 0.241530 -0.005854
v -0.008773 0.241928 0.000660
v -0.002275 0.242146 0.003383
v 0.004251 0.242056 0.000720
v 0.006982 0.241711 -0.005769
v 0.004318 0.241313 -0.012283
v -0.002222 0.243085 -0.010229
v -0.005288 0.243128 -0.008978
v -0.006571 0.243290 -0.005929
v -0.005319 0.243477 -0.002869
v -0.002266 0.243579 -0.001589
v 0.000800 0.243537 -0.002841
v 0.002083 0.243374 -0.005889
v 0.000831 0.243188 -0.008950
v 0.012694 0.107588 -0.003814
v 0.008518 0.108648 -0.013625
v -0.001196 0.106415 0.010247
v 0.008670 0.106662 0.006074
v -0.015302 0.108050 -0.003551
v -0.011126 0.106990 0.006260
v -0.001411 0.109223 -0.017612
v -0.011278 0.108975 -0.013439
v -0.002678 0.185998 0.006837
v -0.006010 0.184582 0.006740
v -0.007362 0.181228 0.006535
v -0.005943 0.177902 0.006343
v -0.002583 0.176551 0.006276
v 0.000749 0.177968 0.006374
v 0.002101 0.181321 0.006579
v 0.000682 0.184647 0.006771
v -0.002238 0.185011 0.029463
v -0.005817 0.183489 0.029358
v -0.007270 0.179887 0.029138
v -0.005745 0.176313 0.028931
v -0.002136 0.174862 0.028860
v 0.001444 0.176383 0.028964
v 0.002896 0.179986 0.029184
v 0.001371 0.183560 0.029391
v -0.003348 0.193509 0.043810
v -0.007155 0.192841 0.045237
v -0.008732 0.191302 0.048718
v -0.007157 0.189794 0.052213
v -0.003351 0.189200 0.053675
v 0.000455 0.189868 0.052248
v 0.002033 0.191407 0.048767
v 0.000457 0.192915 0.045272
v -0.003028 0.220603 0.055970
v -0.006624 0.219972 0.057318
v -0.008114 0.218518 0.060606
v -0.006626 0.217093 0.063907
v -0.003031 0.216532 0.065289
v 0.000564 0.217164 0.063940
v 0.002055 0.218617 0.060653
v 0.000566 0.220042 0.057351
v -0.003050 0.221707 0.058244
v -0.005484 0.221280 0.059157
v -0.006493 0.220296 0.061383
v -0.005485 0.219331 0.063618
v -0.003051 0.218951 0.064553
v -0.000617 0.219379 0.063641
v 0.000392 0.220363 0.061414
v -0.000616 0.221327 0.059179
v -0.003057 0.221564 0.060173
v -0.004201 0.221363 0.060602
v -0.004675 0.220901 0.061648
v -0.004201 0.220447 0.062698
v -0.003058 0.220269 0.063137
v -0.001914 0.220470 0.062708
v -0.001440 0.220932 0.061663
v -0.001914 0.221385 0.060612
v -0.004276 0.107102 -0.009044
v -0.007852 0.105513 -0.007574
v -0.009208 0.101678 -0.006615
v -0.007551 0.097842 -0.006729
v -0.003850 0.096253 -0.007849
v -0.000274 0.097842 -0.009319
v 0.001082 0.101678 -0.010278
v -0.000575 0.105513 -0.010164
v -0.012414 0.104469 -0.033749
v -0.016256 0.102762 -0.032169
v -0.017714 0.098641 -0.031139
v -0.015933 0.094521 -0.031261
v -0.011957 0.092814 -0.032464
v -0.008115 0.094521 -0.034044
v -0.006658 0.098641 -0.035074
v -0.008439 0.102762 -0.034952
v -0.019650 0.113328 -0.049345
v -0.024330 0.112506 -0.049527
v -0.027274 0.110521 -0.052690
v -0.026758 0.108535 -0.056980
v -0.023084 0.107713 -0.059884
v -0.018404 0.108535 -0.059702
v -0.015460 0.110521 -0.056540
v -0.015976 0.112506 -0.052250
v -0.023840 0.143743 -0.064591
v -0.028261 0.142966 -0.064763
v -0.031042 0.141091 -0.067750
v -0.030554 0.139215 -0.071802
v -0.027084 0.138439 -0.074546
v -0.022663 0.139215 -0.074374
v -0.019882 0.141091 -0.071387
v -0.020369 0.142966 -0.067334
v -0.024674 0.144866 -0.067152
v -0.027667 0.144340 -0.067268
v -0.029551 0.143070 -0.069291
v -0.029221 0.141800 -0.072034
v -0.026871 0.141274 -0.073892
v -0.023878 0.141800 -0.073775
v -0.021995 0.143070 -0.071753
v -0.022325 0.144340 -0.069009
v -0.025360 0.144574 -0.069256
v -0.026766 0.144326 -0.069311
v -0.027651 0.143730 -0.070261
v -0.027496 0.143133 -0.071550
v -0.026392 0.142886 -0.072423
v -0.024986 0.143133 -0.072368
v -0.024101 0.143730 -0.071418
v -0.024256 0.144326 -0.070129
vt 0.000000 0.000000
vt 0.000000 0.000000
vt 0.000000 0.000000
vt 0.000000 0.000000
vt 0.000000 0.000000
vt 0.000000 0.000000
vt 0.000000 0.000000
vt 0.000000 0.000000
vt 0.000000 0.000000
vt 0.000000 0.000000
vt 0.000000 0.000000
vt 0.000000 0.000000
vt 0.000000 0.000000
vt 0.000000 0.000000
vt 0.000000 0.000000
vt 0.000000 0.000000
vt 0.000000 0.000000
vt 0.000000 0.000000
vt 0.000000 0.000000
vt 0.000000 0.000000
vt 0.000000 0.000000
vt 0.000000 0.000000
vt 0.000000 0.000000
vt 0.000000 0.000000
vt 0.000000 0.000000
vt 0.000000 0.000000
vt 0.000000 0.000000
vt 0.000000 0.000000
vt 0.000000 0.000000
vt 0.000000 0.000000
vt 0.000000 0.000000
vt 0.000000 0.000000
vt 0.000000 0.000000
vt 0.000000 0.000000
vt 0.000000 0.000000
vt 0.000000 0.000000
vt 0.000000 0.000000
vt 0.000000 0.000000
vt 0.000000 0.000000
vt 0.000000 0.000000
vt 0.000000 0.000000
vt 0.000000 0.000000
vt 0.000000 0.000000
vt 0.000000 0.000000
vt 0.000000 0.000000
vt 0.000000 0.000000
vt 0.000000 0.000000
vt 0.000000 0.000000
vt 0.000000 0.000000
vt 0.000000 0.000000
vt 0.000000 0.000000
vt 0.000000 0.000000
vt 0.000000 0.000000
vt 0.000000 0.000000
vt 0.000000 0.000000
vt 0.000000 0.000000
vt 0.000000 0.000000
vt 0.000000 0.000000
vt 0.000000 0.000000
vt 0.000000 0.000000
vt 0.000000 0.000000
vt 0.000000 0.000000
vt 0.000000 0.000000
vt 0.000000 0.000000
vt 0.000000 0.000000
vt 0.000000 0.000000
vt 0.000000 0.000000
vt 0.000000 0.000000
vt 0.000000 0.000000
vt 0.000000 0.000000
vt 0.000000 0.000000
vt 0.000000 0.000000
vt 0.000000 0.000000
vt 0.000000 0.000000
vt 0.000000 0.000000
vt 0.000000 0.000000
vt 0.000000 0.000000
vt 0.000000 0.000000
vt 0.000000 0.000000
vt 0.000000 0.000000
vt 0.000000 0.000000
vt 0.000000 0.000000
vt 0.000000 0.000000
vt 0.000000 0.000000
vt 0.000000 0.000000
vt 0.000000 0.000000
vt 0.000000 0.000000
vt 0.000000 0.000000
vt 0.000000 0.000000
vt 0.000000 0.000000
vt 0.000000 0.000000
vt 0.000000 0.000000
vt 0.000000 0.000000
vt 0.000000 0.000000
vt 0.000000 0.000000
vt 0.000000 0.000000
vt 0.000000 0.000000
vt 0.000000 0.000000
vt 0.000000 0.000000
vt 0.000000 0.000000
vt 0.000000 0.000000
vt 0.000000 0.000000
vt 0.000000 0.000000
vt 0.000000 0.000000
vt 0.000000 0.000000
vt 0.000000 0.000000
vt 0.000000 0.000000
vt 0.000000 0.000000
vt 0.000000 0.000000
vt 0.000000 0.000000
vt 0.000000 0.000000
vt 0.000000 0.000000
vt 0.000000 0.000000
vt 0.000000 0.000000
vt 0.000000 0.000000
vt 0.000000 0.000000
vt 0.000000 0.000000
vt 0.000000 0.000000
vt 0.000000 0.000000
vt 0.000000 0.000000
vt 0.000000 0.000000
vt 0.000000 0.000000
vt 0.000000 0.000000
vt 0.000000 0.000000
vt 0.000000 0.000000
vt 0.000000 0.000000
vt 0.000000 0.000000
vt 0.000000 0.000000
vt 0.000000 0.000000
vt 0.000000 0.000000
vt 0.000000 0.000000
vt 0.000000 0.000000
vt 0.000000 0.000000
vt 0.000000 0.000000
vt 0.000000 0.000000
vt 0.000000 0.000000
vt 0.000000 0.000000
vt 0.000000 0.000000
vt 0.000000 0.000000
vt 0.000000 0.000000
vt 0.000000 0.000000
vt 0.000000 0.000000
vt 0.000000 0.000000
vt 0.000000 0.000000
vt 0.000000 0.000000
vt 0.000000 0.000000
vt 0.000000 0.000000
vt 0.000000 0.000000
vt 0.000000 0.000000
vt 0.000000 0.000000
vt 0.000000 0.000000
vt 0.000000 0.000000
vn -0.3827 -0.0053 0.9239
vn -0.9239 0.0074 -0.3827
vn 0.9233 -0.0361 -0.3824
vn 0.3826 -0.0234 0.9236
vn -0.9239 0.0074 0.3827
vn -0.3827 -0.0053 -0.9239
vn 0.3826 -0.0234 -0.9236
vn 0.9233 -0.0361 0.3824
vn 0.9209 0.0475 -0.3868
vn 0.3901 -0.0438 0.9197
vn -0.9208 -0.0616 0.3852
vn -0.3900 0.0301 -0.9203
vn 0.3749 0.0595 -0.9252
vn 0.9261 0.0048 0.3773
vn -0.3752 -0.0709 0.9242
vn -0.9254 -0.0209 -0.3785
vn -0.9217 -0.0017 -0.3878
vn 0.9258 -0.0234 -0.3772
vn 0.3779 0.0575 0.9241
vn -0.9257 0.0419 0.3760
vn -0.3780 -0.0389 -0.9250
vn 0.3874 -0.0479 -0.9207
vn 0.9219 0.0202 0.3869
vn -0.3875 0.0664 0.9195
vn 0.2982 0.5800 -0.7581
vn 0.7178 0.6427 0.2679
vn -0.3100 0.6569 0.6873
vn -0.7296 0.5942 -0.3386
vn 0.7209 0.6084 -0.3320
vn 0.2908 0.6627 0.6901
vn -0.7327 0.6285 0.2612
vn -0.3026 0.5741 -0.7608
vn -0.3378 0.9378 0.0809
vn -0.1431 0.9132 -0.3816
vn 0.1287 0.9158 -0.3804
vn 0.3186 0.9442 0.0839
vn -0.1465 0.9506 0.2737
vn -0.3364 0.9222 -0.1906
vn 0.3200 0.9287 -0.1876
vn 0.1254 0.9533 0.2749
vn -0.0095 0.9983 -0.0571
vn -0.9202 -0.0892 -0.3812
vn -0.3823 0.0456 0.9229
vn 0.9212 0.0768 0.3816
vn 0.3821 -0.0568 -0.9224
vn -0.3808 -0.0980 -0.9194
vn -0.9234 -0.0308 0.3825
vn 0.3811 0.0904 0.9201
vn 0.9238 0.0148 -0.3826
vn -0.3734 -0.9256 -0.0619
vn -0.9277 0.3725 0.0259
vn 0.9195 0.3929 -0.0091
vn 0.3919 -0.9168 -0.0763
vn -0.9200 -0.3915 -0.0195
vn -0.3919 0.9188 0.0477
vn 0.3734 0.9271 0.0332
vn 0.9272 -0.3706 -0.0545
vn 0.9008 0.3948 -0.1807
vn 0.3304 -0.8106 0.4835
vn -0.9021 -0.3950 0.1740
vn -0.3263 0.8020 -0.5003
vn 0.3219 0.8237 -0.4667
vn 0.8905 -0.3748 0.2579
vn -0.3230 -0.8262 0.4616
vn -0.8802 0.3729 -0.2937
vn -0.9236 0.1708 -0.3431
vn 0.9240 0.1524 -0.3507
vn 0.3824 -0.3651 0.8488
vn -0.9239 -0.1354 0.3580
vn -0.3825 0.3821 -0.8412
vn 0.3829 0.3745 -0.8445
vn 0.9238 -0.1539 0.3506
vn -0.3831 -0.3574 0.8518
vn 0.2939 0.8609 -0.4153
vn 0.7184 0.4545 0.5266
vn -0.3073 0.2744 0.9112
vn -0.7318 0.6808 -0.0307
vn 0.7186 0.6950 -0.0240
vn 0.2935 0.2803 0.9139
vn -0.7320 0.4403 0.5199
vn -0.3069 0.8550 -0.4181
vn -0.3383 0.7989 0.4972
vn -0.1459 0.9866 0.0728
vn 0.1259 0.9893 0.0740
vn 0.3180 0.8054 0.5002
vn -0.1461 0.7239 0.6743
vn -0.3382 0.9078 0.2481
vn 0.3181 0.9142 0.2511
vn 0.1257 0.7265 0.6755
vn -0.0108 0.9163 0.4002
vn -0.3228 -0.9170 0.2344
vn -0.8878 0.3792 0.2609
vn 0.8670 0.3840 -0.3177
vn 0.4042 -0.9147 -0.0053
vn -0.8579 -0.3809 0.3447
vn -0.3947 0.9182 0.0322
vn 0.3322 0.9201 -0.2075
vn 0.8968 -0.3756 -0.2339
vn 0.8735 0.4733 -0.1140
vn 0.1582 -0.8385 -0.5214
vn -0.9036 -0.3954 0.1649
vn -0.1660 0.8249 0.5403
vn 0.4225 0.8582 0.2915
vn 0.7507 -0.3975 -0.5278
vn -0.4489 -0.8489 -0.2791
vn -0.7852 0.3246 0.5273
vn -0.7764 0.1989 0.5980
vn 0.9856 0.1634 0.0429
vn 0.1084 -0.4166 -0.9026
vn -0.9879 -0.1468 -0.0509
vn -0.1109 0.4331 0.8945
vn 0.6191 0.4184 0.6646
vn 0.7741 -0.1824 -0.6062
vn -0.6216 -0.4018 -0.6725
vn 0.3994 0.8804 0.2559
vn 0.5198 0.4168 -0.7457
vn -0.5728 0.2249 -0.7882
vn -0.6933 0.6884 0.2133
vn 0.6859 0.6884 -0.2361
vn -0.0016 0.2249 -0.9744
vn -0.8593 0.4168 -0.2963
vn -0.1719 0.8804 0.4421
vn -0.4805 0.7725 -0.4153
vn -0.1694 0.9822 -0.0812
vn 0.0891 0.9822 -0.1654
vn 0.1436 0.7725 -0.6186
vn -0.3509 0.6856 -0.6379
vn -0.4054 0.8953 -0.1847
vn 0.2187 0.8953 -0.3880
vn -0.0923 0.6856 -0.7221
vn -0.1400 0.8921 -0.4297
vn 0.9234 0.0487 -0.3806
vn 0.3770 -0.0416 0.9253
vn -0.9224 -0.0625 0.3810
vn -0.3774 0.0277 -0.9256
vn 0.3842 0.0573 -0.9215
vn 0.9218 0.0064 0.3876
vn -0.3836 -0.0691 0.9209
vn -0.9219 -0.0224 -0.3868
vn -0.9196 -0.0889 -0.3826
vn -0.3701 0.0437 0.9280
vn 0.9210 0.0767 0.3820
vn 0.3693 -0.0549 -0.9277
vn -0.3856 -0.0971 -0.9175
vn -0.9209 -0.0317 0.3885
vn 0.3861 0.0893 0.9181
vn 0.9206 0.0159 -0.3901
vn 0.8786 0.4284 -0.2111
vn 0.3245 -0.8121 0.4851
vn -0.8704 -0.4508 0.1978
vn -0.3281 0.8016 -0.4997
vn 0.3087 0.8286 -0.4669
vn 0.8989 -0.3615 0.2475
vn -0.3075 -0.8314 0.4628
vn -0.9052 0.3343 -0.2625
vn -0.3830 -0.3574 0.8518
vn -0.0108 0.9163 0.4003
vn 0.9056 0.3958 -0.1523
vn 0.1673 -0.8362 -0.5223
vn -0.8678 -0.4826 0.1190
vn -0.1468 0.8293 0.5392
vn 0.4493 0.8478 0.2818
vn 0.7849 -0.3544 -0.5083
vn -0.4219 -0.8589 -0.2905
vn -0.7265 0.3972 0.5608
vn 0.3993 0.8804 0.2559
vn -0.1719 0.8804 0.4420
vn -0.4805 0.7724 -0.4153
vn 0.1436 0.7724 -0.6186
vn -0.3508 0.6856 -0.6379
vn -0.4054 0.8953 -0.1846
vn -0.1401 0.8920 -0.4297
s off
f 5/1/1 12/2/1 4/3/1
f 11/4/2 2/5/2 3/6/2
f 16/7/3 7/8/3 8/9/3
f 6/10/4 13/11/4 5/1/4
f 4/3/5 11/4/5 3/6/5
f 10/12/6 1/13/6 2/5/6
f 9/14/7 8/9/7 1/13/7
f 7/8/8 14/15/8 6/10/8
f 24/16/9 49/17/9 50/18/9
f 22/19/10 51/20/10 52/21/10
f 54/22/11 19/23/11 53/24/11
f 56/25/12 17/26/12 55/27/12
f 55/27/13 24/16/13 50/18/13
f 23/28/14 52/21/14 49/17/14
f 21/29/15 54/22/15 51/20/15
f 53/24/16 18/30/16 56/25/16
f 27/31/17 18/30/17 19/23/17
f 32/32/18 23/28/18 24/16/18
f 22/19/19 29/33/19 21/29/19
f 20/34/20 27/31/20 19/23/20
f 26/35/21 17/26/21 18/30/21
f 25/36/22 24/16/22 17/26/22
f 23/28/23 30/37/23 22/19/23
f 21/29/24 28/38/24 20/34/24
f 25/36/25 40/39/25 32/32/25
f 31/40/26 38/41/26 30/37/26
f 29/33/27 36/42/27 28/38/27
f 27/31/28 34/43/28 26/35/28
f 32/32/29 39/44/29 31/40/29
f 38/41/30 29/33/30 30/37/30
f 36/42/31 27/31/31 28/38/31
f 26/35/32 33/45/32 25/36/32
f 36/42/33 43/46/33 35/47/33
f 42/48/34 33/45/34 34/43/34
f 33/45/35 48/49/35 40/39/35
f 39/44/36 46/50/36 38/41/36
f 37/51/37 44/52/37 36/42/37
f 43/46/38 34/43/38 35/47/38
f 48/49/39 39/44/39 40/39/39
f 46/50/40 37/51/40 38/41/40
f 47/53/41 48/49/41 41/54/41
f 53/24/42 10/12/42 11/4/42
f 51/20/43 12/2/43 13/11/43
f 15/55/44 52/21/44 14/15/44
f 9/14/45 50/18/45 16/7/45
f 10/12/46 55/27/46 9/14/46
f 54/22/47 11/4/47 12/2/47
f 52/21/48 13/11/48 14/15/48
f 16/7/49 49/17/49 15/55/49
f 61/56/50 68/57/50 60/58/50
f 67/59/51 58/60/51 59/61/51
f 72/62/52 63/63/52 64/64/52
f 62/65/53 69/66/53 61/56/53
f 60/58/54 67/59/54 59/61/54
f 66/67/55 57/68/55 58/60/55
f 65/69/56 64/64/56 57/68/56
f 63/63/57 70/70/57 62/65/57
f 80/71/58 71/72/58 72/62/58
f 78/73/59 69/66/59 70/70/59
f 76/74/60 67/59/60 68/57/60
f 66/67/61 73/75/61 65/69/61
f 65/69/62 80/71/62 72/62/62
f 79/76/63 70/70/63 71/72/63
f 77/77/64 68/57/64 69/66/64
f 67/59/65 74/78/65 66/67/65
f 83/79/66 74/78/66 75/80/66
f 88/81/67 79/76/67 80/71/67
f 78/73/68 85/82/68 77/77/68
f 76/74/69 83/79/69 75/80/69
f 82/83/70 73/75/70 74/78/70
f 81/84/71 80/71/71 73/75/71
f 79/76/72 86/85/72 78/73/72
f 77/77/73 84/86/73 76/74/73
f 89/87/74 88/81/74 81/84/74
f 87/88/75 94/89/75 86/85/75
f 85/82/76 92/90/76 84/86/76
f 83/79/77 90/91/77 82/83/77
f 96/92/78 87/88/78 88/81/78
f 94/89/79 85/82/79 86/85/79
f 92/90/80 83/79/80 84/86/80
f 82/83/81 89/87/81 81/84/81
f 92/90/82 99/93/82 91/94/82
f 98/95/83 89/87/83 90/91/83
f 89/87/84 104/96/84 96/92/84
f 103/97/85 94/89/85 95/98/85
f 101/99/86 92/90/86 93/100/86
f 91/94/87 98/95/87 90/91/87
f 104/96/88 95/98/88 96/92/88
f 94/89/89 101/99/89 93/100/89
f 103/97/90 104/96/90 97/101/90
f 109/102/91 116/103/91 117/104/91
f 106/105/92 115/106/92 107/107/92
f 111/108/93 120/109/93 112/110/93
f 110/111/94 117/104/94 118/112/94
f 108/113/95 115/106/95 116/103/95
f 105/114/96 114/115/96 106/105/96
f 112/110/97 113/116/97 105/114/97
f 111/108/98 118/112/98 119/117/98
f 120/109/99 127/118/99 128/119/99
f 117/104/100 126/120/100 118/112/100
f 115/106/101 124/121/101 116/103/101
f 114/115/102 121/122/102 122/123/102
f 113/116/103 128/119/103 121/122/103
f 118/112/104 127/118/104 119/117/104
f 116/103/105 125/124/105 117/104/105
f 115/106/106 122/123/106 123/125/106
f 122/123/107 131/126/107 123/125/107
f 127/118/108 136/127/108 128/119/108
f 126/120/109 133/128/109 134/129/109
f 124/121/110 131/126/110 132/130/110
f 121/122/111 130/131/111 122/123/111
f 128/119/112 129/132/112 121/122/112
f 127/118/113 134/129/113 135/133/113
f 125/124/114 132/130/114 133/128/114
f 129/132/115 144/134/115 137/135/115
f 135/133/116 142/136/116 143/137/116
f 133/128/117 140/138/117 141/139/117
f 130/131/118 139/140/118 131/126/118
f 136/127/119 143/137/119 144/134/119
f 133/128/120 142/136/120 134/129/120
f 131/126/121 140/138/121 132/130/121
f 129/132/122 138/141/122 130/131/122
f 139/140/123 148/142/123 140/138/123
f 137/135/124 146/143/124 138/141/124
f 144/134/125 145/144/125 137/135/125
f 143/137/126 150/145/126 151/146/126
f 141/139/127 148/142/127 149/147/127
f 138/141/128 147/148/128 139/140/128
f 143/137/129 152/149/129 144/134/129
f 142/136/130 149/147/130 150/145/130
f 147/148/131 145/144/131 151/146/131
f 5/1/1 13/11/1 12/2/1
f 11/4/2 10/12/2 2/5/2
f 16/7/3 15/55/3 7/8/3
f 6/10/4 14/15/4 13/11/4
f 4/3/5 12/2/5 11/4/5
f 10/12/6 9/14/6 1/13/6
f 9/14/7 16/7/7 8/9/7
f 7/8/8 15/55/8 14/15/8
f 24/16/132 23/28/132 49/17/132
f 22/19/133 21/29/133 51/20/133
f 54/22/134 20/34/134 19/23/134
f 56/25/135 18/30/135 17/26/135
f 55/27/136 17/26/136 24/16/136
f 23/28/137 22/19/137 52/21/137
f 21/29/138 20/34/138 54/22/138
f 53/24/139 19/23/139 18/30/139
f 27/31/17 26/35/17 18/30/17
f 32/32/18 31/40/18 23/28/18
f 22/19/19 30/37/19 29/33/19
f 20/34/20 28/38/20 27/31/20
f 26/35/21 25/36/21 17/26/21
f 25/36/22 32/32/22 24/16/22
f 23/28/23 31/40/23 30/37/23
f 21/29/24 29/33/24 28/38/24
f 25/36/25 33/45/25 40/39/25
f 31/40/26 39/44/26 38/41/26
f 29/33/27 37/51/27 36/42/27
f 27/31/28 35/47/28 34/43/28
f 32/32/29 40/39/29 39/44/29
f 38/41/30 37/51/30 29/33/30
f 36/42/31 35/47/31 27/31/31
f 26/35/32 34/43/32 33/45/32
f 36/42/33 44/52/33 43/46/33
f 42/48/34 41/54/34 33/45/34
f 33/45/35 41/54/35 48/49/35
f 39/44/36 47/53/36 46/50/36
f 37/51/37 45/150/37 44/52/37
f 43/46/38 42/48/38 34/43/38
f 48/49/39 47/53/39 39/44/39
f 46/50/40 45/150/40 37/51/40
f 41/54/41 42/48/41 43/46/41
f 43/46/41 44/52/41 41/54/41
f 44/52/41 45/150/41 41/54/41
f 45/150/41 46/50/41 41/54/41
f 46/50/41 47/53/41 41/54/41
f 53/24/140 56/25/140 10/12/140
f 51/20/141 54/22/141 12/2/141
f 15/55/142 49/17/142 52/21/142
f 9/14/143 55/27/143 50/18/143
f 10/12/144 56/25/144 55/27/144
f 54/22/145 53/24/145 11/4/145
f 52/21/146 51/20/146 13/11/146
f 16/7/147 50/18/147 49/17/147
f 61/56/50 69/66/50 68/57/50
f 67/59/51 66/67/51 58/60/51
f 72/62/52 71/72/52 63/63/52
f 62/65/53 70/70/53 69/66/53
f 60/58/54 68/57/54 67/59/54
f 66/67/55 65/69/55 57/68/55
f 65/69/56 72/62/56 64/64/56
f 63/63/57 71/72/57 70/70/57
f 80/71/148 79/76/148 71/72/148
f 78/73/149 77/77/149 69/66/149
f 76/74/150 75/80/150 67/59/150
f 66/67/151 74/78/151 73/75/151
f 65/69/152 73/75/152 80/71/152
f 79/76/153 78/73/153 70/70/153
f 77/77/154 76/74/154 68/57/154
f 67/59/155 75/80/155 74/78/155
f 83/79/66 82/83/66 74/78/66
f 88/81/67 87/88/67 79/76/67
f 78/73/68 86/85/68 85/82/68
f 76/74/69 84/86/69 83/79/69
f 82/83/70 81/84/70 73/75/70
f 81/84/71 88/81/71 80/71/71
f 79/76/72 87/88/72 86/85/72
f 77/77/156 85/82/156 84/86/156
f 89/87/74 96/92/74 88/81/74
f 87/88/75 95/98/75 94/89/75
f 85/82/76 93/100/76 92/90/76
f 83/79/77 91/94/77 90/91/77
f 96/92/78 95/98/78 87/88/78
f 94/89/79 93/100/79 85/82/79
f 92/90/80 91/94/80 83/79/80
f 82/83/81 90/91/81 89/87/81
f 92/90/82 100/151/82 99/93/82
f 98/95/83 97/101/83 89/87/83
f 89/87/84 97/101/84 104/96/84
f 103/97/85 102/152/85 94/89/85
f 101/99/86 100/151/86 92/90/86
f 91/94/87 99/93/87 98/95/87
f 104/96/88 103/97/88 95/98/88
f 94/89/89 102/152/89 101/99/89
f 97/101/157 98/95/157 99/93/157
f 99/93/90 100/151/90 97/101/90
f 100/151/90 101/99/90 97/101/90
f 101/99/90 102/152/90 97/101/90
f 102/152/157 103/97/157 97/101/157
f 109/102/91 108/113/91 116/103/91
f 106/105/92 114/115/92 115/106/92
f 111/108/93 119/117/93 120/109/93
f 110/111/94 109/102/94 117/104/94
f 108/113/95 107/107/95 115/106/95
f 105/114/96 113/116/96 114/115/96
f 112/110/97 120/109/97 113/116/97
f 111/108/98 110/111/98 118/112/98
f 120/109/158 119/117/158 127/118/158
f 117/104/159 125/124/159 126/120/159
f 115/106/160 123/125/160 124/121/160
f 114/115/161 113/116/161 121/122/161
f 113/116/162 120/109/162 128/119/162
f 118/112/163 126/120/163 127/118/163
f 116/103/164 124/121/164 125/124/164
f 115/106/165 114/115/165 122/123/165
f 122/123/107 130/131/107 131/126/107
f 127/118/108 135/133/108 136/127/108
f 126/120/109 125/124/109 133/128/109
f 124/121/110 123/125/110 131/126/110
f 121/122/111 129/132/111 130/131/111
f 128/119/112 136/127/112 129/132/112
f 127/118/113 126/120/113 134/129/113
f 125/124/114 124/121/114 132/130/114
f 129/132/166 136/127/166 144/134/166
f 135/133/116 134/129/116 142/136/116
f 133/128/117 132/130/117 140/138/117
f 130/131/118 138/141/118 139/140/118
f 136/127/119 135/133/119 143/137/119
f 133/128/120 141/139/120 142/136/120
f 131/126/121 139/140/121 140/138/121
f 129/132/167 137/135/167 138/141/167
f 139/140/168 147/148/168 148/142/168
f 137/135/124 145/144/124 146/143/124
f 144/134/125 152/149/125 145/144/125
f 143/137/169 142/136/169 150/145/169
f 141/139/170 140/138/170 148/142/170
f 138/141/171 146/143/171 147/148/171
f 143/137/129 151/146/129 152/149/129
f 142/136/130 141/139/130 149/147/130
f 147/148/131 146/143/131 145/144/131
f 145/144/172 152/149/172 151/146/172
f 151/146/131 150/145/131 147/148/131
f 150/145/131 149/147/131 147/148/131
f 149/147/172 148/142/172 147/148/172
