# Blender v3.0.0 OBJ File: 'Rocks.blend'
# www.blender.org
o Circle
v -2.932762 1.344612 -2.283377
v -0.972977 1.344612 -1.726656
v -0.486398 1.344867 -2.236917
v -0.276024 0.934383 -2.641133
v -0.357291 1.345525 -2.772607
v -3.025272 1.344612 -3.364106
v -2.569297 1.344612 -4.187714
v -1.765769 0.490227 -2.212177
v -1.601250 1.344612 -1.499295
v -2.252599 1.344612 -1.619768
v -1.254573 0.794584 -1.657565
v -1.168303 1.344612 -4.142301
v -2.476364 1.344612 -4.237693
v -2.659280 0.915441 -4.289620
v -2.714037 0.765218 -4.125102
v -1.682620 0.490939 -3.915331
v -1.184256 0.640171 -3.928464
v -3.105008 1.145995 -2.230472
v -3.088644 0.750270 -3.206280
v -2.836919 0.709558 -3.885827
v -2.426267 0.491278 -3.163295
v -3.057379 0.711363 -3.222587
v -1.789335 0.513881 -2.137568
v -2.588104 0.646372 -1.818486
v -2.711609 0.643755 -1.906837
v -2.983003 0.657955 -2.358070
v -2.696648 0.560605 -2.549479
v -1.014652 0.651331 -2.014657
v -1.778828 0.689439 -1.613118
v -1.661397 0.628131 -1.841852
v -0.454947 0.724681 -2.741281
v -0.567142 0.659488 -2.636504
v -0.812170 0.481505 -2.937412
v -1.048653 0.549366 -3.645224
v -1.031235 0.447908 -3.312702
v -0.836968 0.445619 -3.102255
v -0.529877 0.654402 -2.987366
v -2.333749 1.191414 -1.463124
v -3.095819 1.188774 -2.206835
v -3.197830 1.191403 -3.400907
v -0.340111 1.197298 -2.156774
v -0.878481 1.192876 -1.581349
v -0.188528 1.196306 -2.807180
v -1.068249 1.184718 -4.304243
v -2.513064 1.191712 -4.409609
v -2.692938 1.191645 -4.312872
v -1.586629 1.192248 -1.324736
v -1.767523 0.337270 -2.727725
v -1.660439 0.320568 -2.930825
v -1.933890 0.325914 -3.250330
v -1.398069 0.370308 -3.213503
v -1.749973 0.358132 -3.388857
vt 0.242952 0.383765
vt 0.179904 0.436744
vt 0.141858 0.348082
vt 0.194411 0.188068
vt 0.305602 0.175444
vt 0.225972 0.206650
vt 0.095474 0.566732
vt 0.015992 0.358219
vt 0.171430 0.441334
vt 0.547216 0.145277
vt 0.460928 0.166625
vt 0.453924 0.043837
vt 0.295556 0.000104
vt 0.250245 0.137132
vt 0.135427 0.032678
vt 0.008514 0.144312
vt 0.409508 0.393022
vt 0.547216 0.463372
vt 0.334323 0.620208
vt 0.292844 0.625807
vt 0.287630 0.539642
vt 0.399016 0.351671
vt 1.004353 3.532342
vt -1.370239 2.583542
vt -0.671706 -1.599561
vt 0.243183 0.483022
vt 0.136962 0.275062
vt 0.132829 0.294684
vt 0.278701 0.308817
vt 0.181402 0.345368
vt 0.245851 0.257309
vt 0.373790 0.273578
vt 0.380592 0.291112
vt 0.373534 0.318236
vt 0.393784 0.215050
vt 0.420495 0.214671
vt 0.422100 0.253351
vt -2.603994 -0.378207
vt -1.058186 -2.234267
vt 1.614822 -2.845343
vt 1.556323 -2.077305
vt -0.136125 3.456870
vt -1.977441 3.106734
vt -0.353704 4.170235
vt 3.523827 1.521020
vt 1.260650 4.226532
vt 3.362359 -1.277783
vt 4.218259 -1.388113
vt 3.485678 -1.083605
vt 3.904242 -1.852765
vt -2.021070 1.308784
vt -2.782554 1.432006
vt -1.911414 -0.077307
vt 4.218259 1.848184
vt 0.348005 0.407224
vt 0.334299 0.330404
vt 0.290885 0.356125
vt 0.312247 0.362745
vt 0.297992 0.320616
vt 0.000104 0.356768
vt 0.271947 0.500488
vt 0.237984 0.251049
vn 0.3266 0.9447 0.0303
vn -0.1174 0.9425 -0.3129
vn 0.9751 0.2108 -0.0691
vn -0.9582 0.1783 -0.2236
vn -0.3048 0.4486 -0.8401
vn 0.1628 0.4433 -0.8815
vn -0.0567 0.5752 0.8160
vn 0.4695 0.1307 0.8732
vn -0.7106 0.4959 0.4992
vn 0.0002 -1.0000 -0.0007
vn 0.9603 0.2638 -0.0909
vn 0.8028 0.5339 0.2654
vn 0.5814 -0.0670 -0.8108
vn 0.1731 0.9441 -0.2807
vn -0.0762 0.9941 0.0771
vn -0.5924 0.5889 -0.5498
vn -0.1516 0.9657 -0.2110
vn -0.3061 0.9060 0.2925
vn -0.5495 0.8325 -0.0704
vn 0.4750 -0.7348 -0.4841
vn 0.6697 -0.7405 -0.0573
vn -0.4838 -0.7435 -0.4617
vn -0.6566 -0.7373 -0.1591
vn -0.5812 -0.7372 0.3446
vn 0.3180 -0.7411 0.5913
vn 0.5875 -0.7410 0.3253
vn -0.2274 -0.7430 -0.6295
vn 0.1232 -0.7406 -0.6605
vn -0.0534 -0.7269 0.6847
vn -0.1903 0.9518 0.2407
vn 0.3458 0.7021 0.6224
vn -0.0829 0.9918 0.0975
vn -0.1848 0.9667 -0.1769
vn 0.3506 0.9353 0.0488
vn 0.3188 0.9422 0.1034
vn -0.2114 0.8498 -0.4829
vn 0.9828 -0.1645 -0.0843
vn -0.1780 0.5399 -0.8227
vn 0.1934 0.4709 -0.8607
vn -0.1390 0.4555 0.8793
vn 0.0547 0.7282 0.6832
vn -0.1190 0.4742 0.8723
vn -0.7218 0.4874 0.4914
vn -0.8574 0.5009 0.1180
vn -0.7868 0.4958 0.3675
vn -0.8082 0.3521 0.4722
vn 0.0000 -1.0000 0.0000
vn 0.0004 -1.0000 0.0004
vn -0.0010 -1.0000 -0.0015
vn 0.8139 0.3287 -0.4791
vn 0.7736 0.6331 -0.0274
vn 0.8447 0.2243 0.4860
vn 0.8655 0.1458 0.4792
vn 0.8652 0.1751 0.4699
vn 0.8838 0.3538 0.3062
vn 0.6778 0.2386 -0.6954
vn 0.6947 0.1363 -0.7063
vn 0.0713 0.9965 -0.0444
vn 0.2979 0.9476 -0.1154
vn 0.2323 0.9726 -0.0075
vn 0.1631 0.9542 -0.2510
vn -0.1179 0.9424 -0.3131
vn 0.1107 0.9851 -0.1320
vn 0.0302 0.9477 -0.3178
vn 0.2289 0.9623 -0.1469
vn -0.6623 0.6967 -0.2757
vn -0.6196 0.6517 -0.4374
vn -0.6216 0.6510 -0.4356
vn -0.5237 0.6086 -0.5960
vn -0.0872 0.9413 -0.3260
vn -0.1185 0.9410 -0.3170
vn -0.3556 0.9022 -0.2441
vn -0.6130 0.6969 0.3722
vn -0.5327 0.8401 -0.1027
vn -0.5299 0.8453 -0.0685
vn 0.4693 -0.7405 -0.4810
vn 0.6750 -0.7354 -0.0593
vn -0.4900 -0.7379 -0.4642
vn -0.6720 -0.7240 -0.1555
vn -0.5902 -0.7263 0.3524
vn 0.3183 -0.7410 0.5913
vn 0.5881 -0.7405 0.3254
vn -0.2275 -0.7437 -0.6286
vn 0.1218 -0.7427 -0.6585
vn -0.0488 -0.7411 0.6696
vn -0.2528 0.8796 0.4030
vn -0.1452 0.9636 0.2245
vn -0.1206 0.9477 0.2955
vn 0.1860 0.9468 0.2626
vn 0.1845 0.9321 0.3116
vn 0.2399 0.9586 0.1533
vn -0.0979 0.9901 0.1003
vn -0.2028 0.9390 -0.2779
vn 0.2751 0.9300 -0.2438
vn -0.1994 0.9795 0.0287
vn -0.1864 0.9825 -0.0001
s off
f 21/1/1 22/2/1 26/3/1
f 29/4/2 28/5/2 30/6/2
f 40/7/3 18/8/3 19/9/3
f 43/10/4 4/11/4 41/12/4
f 42/13/5 11/14/5 47/15/5
f 47/15/6 29/4/6 38/16/6
f 17/17/7 44/18/7 45/19/7
f 46/20/8 14/21/8 45/19/8
f 44/18/9 17/17/9 34/22/9
f 5/23/10 2/24/10 1/25/10
f 26/3/11 19/9/11 18/8/11
f 19/9/12 22/2/12 20/26/12
f 24/27/13 25/28/13 18/8/13
f 48/29/14 27/30/14 8/31/14
f 26/3/15 25/28/15 24/27/15
f 42/13/16 41/12/16 28/5/16
f 33/32/17 8/31/17 28/5/17
f 36/33/18 34/22/18 35/34/18
f 32/35/19 31/36/19 37/37/19
f 1/25/20 38/38/20 39/39/20
f 1/25/21 40/40/21 6/41/21
f 3/42/22 42/43/22 2/24/22
f 5/23/23 41/44/23 3/42/23
f 12/45/24 43/46/24 5/23/24
f 7/47/25 45/48/25 13/49/25
f 6/41/26 46/50/26 7/47/26
f 9/51/27 42/43/27 47/52/27
f 10/53/28 47/52/28 38/38/28
f 12/45/29 45/48/29 44/54/29
f 16/55/30 51/56/30 34/22/30
f 21/1/31 50/57/31 52/58/31
f 52/58/32 49/59/32 51/56/32
f 49/59/33 48/29/33 33/32/33
f 26/3/34 27/30/34 21/1/34
f 21/1/35 20/26/35 22/2/35
f 29/4/36 11/14/36 28/5/36
f 40/7/37 39/60/37 18/8/37
f 11/14/38 29/4/38 47/15/38
f 29/4/39 24/27/39 38/16/39
f 45/19/40 14/21/40 16/55/40
f 14/21/41 15/61/41 16/55/41
f 16/55/42 17/17/42 45/19/42
f 34/22/43 37/37/43 44/18/43
f 37/37/44 31/36/44 43/10/44
f 31/36/45 4/11/45 43/10/45
f 43/10/46 44/18/46 37/37/46
f 6/41/47 7/47/47 13/49/47
f 13/49/47 12/45/47 6/41/47
f 12/45/48 5/23/48 1/25/48
f 6/41/47 12/45/47 1/25/47
f 5/23/49 3/42/49 2/24/49
f 2/24/47 9/51/47 10/53/47
f 10/53/47 1/25/47 2/24/47
f 18/8/50 25/28/50 26/3/50
f 26/3/51 22/2/51 19/9/51
f 15/61/52 14/21/52 20/26/52
f 14/21/53 46/20/53 40/7/53
f 20/26/54 14/21/54 40/7/54
f 40/7/55 19/9/55 20/26/55
f 39/60/56 38/16/56 18/8/56
f 38/16/57 24/27/57 18/8/57
f 49/59/58 50/57/58 48/29/58
f 50/57/59 21/1/59 48/29/59
f 21/1/60 27/30/60 48/29/60
f 27/30/61 23/62/61 8/31/61
f 30/6/62 23/62/62 29/4/62
f 23/62/63 27/30/63 24/27/63
f 29/4/64 23/62/64 24/27/64
f 27/30/65 26/3/65 24/27/65
f 31/36/66 32/35/66 4/11/66
f 32/35/67 28/5/67 41/12/67
f 4/11/68 32/35/68 41/12/68
f 28/5/69 11/14/69 42/13/69
f 23/62/70 30/6/70 8/31/70
f 30/6/71 28/5/71 8/31/71
f 28/5/72 32/35/72 33/32/72
f 36/33/73 37/37/73 34/22/73
f 36/33/74 33/32/74 37/37/74
f 33/32/75 32/35/75 37/37/75
f 1/25/76 10/53/76 38/38/76
f 1/25/77 39/39/77 40/40/77
f 3/42/78 41/44/78 42/43/78
f 5/23/79 43/46/79 41/44/79
f 12/45/80 44/54/80 43/46/80
f 7/47/81 46/50/81 45/48/81
f 6/41/82 40/40/82 46/50/82
f 9/51/83 2/24/83 42/43/83
f 10/53/84 9/51/84 47/52/84
f 12/45/85 13/49/85 45/48/85
f 34/22/86 17/17/86 16/55/86
f 16/55/87 52/58/87 51/56/87
f 51/56/88 35/34/88 34/22/88
f 52/58/89 16/55/89 20/26/89
f 16/55/90 15/61/90 20/26/90
f 20/26/91 21/1/91 52/58/91
f 52/58/92 50/57/92 49/59/92
f 48/29/93 8/31/93 33/32/93
f 33/32/94 36/33/94 35/34/94
f 35/34/95 51/56/95 33/32/95
f 51/56/96 49/59/96 33/32/96
