# Blender v3.0.0 OBJ File: 'Veemaight.blend'
# www.blender.org
o Vegemite_Cylinder.001
v 1.466615 -2.443837 -0.835349
v 1.262728 1.942049 -0.719220
v 1.598666 -2.511455 0.171313
v 1.447475 1.847448 0.689150
v 0.986928 -2.674698 0.967872
v 0.591623 1.619063 1.803575
v -0.010251 -2.837941 1.087714
v -0.803481 1.390678 1.971241
v -0.808738 -2.905559 0.460638
v -1.920604 1.296077 1.093931
v -0.940790 -2.837941 -0.546023
v -2.105351 1.390678 -0.314439
v -0.329052 -2.674698 -1.342582
v -1.249499 1.619063 -1.428865
v 0.668128 -2.511455 -1.462425
v 0.145605 1.847448 -1.596531
v 1.426005 0.876387 -0.812219
v 1.610752 0.781787 0.596151
v 0.754900 0.553401 1.710577
v -0.640204 0.325016 1.878242
v -1.757327 0.230416 1.000932
v -1.942074 0.325016 -0.407438
v -1.086222 0.553401 -1.521863
v 0.308882 0.781787 -1.689529
v 1.648798 0.533471 0.574481
v 0.792946 0.305086 1.688906
v -0.602158 0.076701 1.856572
v -1.719281 -0.017900 0.979262
v -1.904028 0.076701 -0.429108
v -1.048176 0.305086 -1.543534
v 0.346928 0.533471 -1.711200
v 1.464051 0.628072 -0.833889
v 1.308976 0.844638 -0.745562
v 1.480001 0.757064 0.558204
v 0.687716 0.545642 1.589857
v -0.603769 0.334219 1.745070
v -1.637920 0.246645 0.932920
v -1.808945 0.334219 -0.370845
v -1.016660 0.545642 -1.402499
v 0.274825 0.757064 -1.557712
v 2.080383 -2.283356 0.328660
v 1.224531 -2.511741 1.443086
v -0.170573 -2.740126 1.610752
v -1.287696 -2.834727 0.733441
v -1.472442 -2.740126 -0.674929
v -0.616591 -2.511741 -1.789354
v 0.778513 -2.283356 -1.957020
v 1.895636 -2.188756 -1.079710
vt 0.874244 0.679156
vt 0.749809 0.584570
vt 0.874244 0.584570
vt 0.749809 0.679156
vt 0.625373 0.584570
vt 0.625373 0.679156
vt 0.500938 0.584570
vt 0.500938 0.679156
vt 0.376503 0.584570
vt 0.376503 0.679156
vt 0.252067 0.584570
vt 0.252067 0.679156
vt 0.127632 0.584570
vt 0.464492 0.767146
vt 0.464492 0.891581
vt 0.127632 0.679156
vt 0.003197 0.584570
vt 0.998679 0.679156
vt 0.998679 0.584570
vt 0.857525 0.008348
vt 1.002123 0.068242
vt 0.942228 0.212840
vt 0.994058 0.573392
vt 0.878865 0.573392
vt 0.123011 0.573392
vt 0.007818 0.573392
vt 0.132253 0.573392
vt 0.247446 0.573392
vt 0.256688 0.573392
vt 0.371881 0.573392
vt 0.496317 0.573392
vt 0.381124 0.573392
vt 0.620752 0.573392
vt 0.505559 0.573392
vt 0.745188 0.573392
vt 0.629994 0.573392
vt 0.754430 0.573392
vt 0.869623 0.573392
vt 0.840625 0.494004
vt 0.722121 0.255903
vt 0.840625 0.255903
vt 0.722120 0.494003
vt 0.603616 0.255903
vt 0.603616 0.494003
vt 0.485112 0.255903
vt 0.485112 0.494003
vt 0.366608 0.255903
vt 0.366608 0.494003
vt 0.248104 0.255903
vt 0.248104 0.494003
vt 0.129600 0.255903
vt 0.129600 0.494003
vt 0.011096 0.255903
vt 0.959129 0.494004
vt 0.959129 0.255904
vt 0.836224 0.516946
vt 0.717720 0.516945
vt 0.599215 0.516945
vt 0.480711 0.516945
vt 0.362207 0.516945
vt 0.243703 0.516945
vt 0.125199 0.516945
vt 0.011096 0.494004
vt 0.954728 0.516946
vt 0.857525 0.212840
vt 0.027996 0.212840
vt 0.112699 0.212840
vt 0.146500 0.212840
vt 0.231203 0.212840
vt 0.265004 0.212840
vt 0.349708 0.212840
vt 0.468212 0.212840
vt 0.383509 0.212840
vt 0.502013 0.212840
vt 0.586716 0.212840
vt 0.620517 0.212840
vt 0.705220 0.212840
vt 0.739021 0.212840
vt 0.823724 0.212840
vt 0.376502 0.979570
vt 0.164078 0.767146
vt 0.252067 0.979570
vt 0.164078 0.891581
vt 0.003197 0.679156
vt 0.797631 0.152946
vt 0.797631 0.068242
vt 0.942228 0.008348
vt 1.002123 0.152946
vt 0.726521 0.516945
vt 0.608017 0.516945
vt 0.489513 0.516945
vt 0.371009 0.516945
vt 0.252505 0.516945
vt 0.134001 0.516945
vt 0.015497 0.516946
vt 0.845025 0.516945
vn 0.9800 0.1604 -0.1178
vn 0.7847 0.0665 0.6163
vn 0.1298 -0.0665 0.9893
vn -0.6012 -0.1604 0.7828
vn -0.9800 -0.1604 0.1178
vn -0.7847 -0.0665 -0.6163
vn -0.1509 0.9848 0.0859
vn -0.1298 0.0665 -0.9893
vn 0.6012 0.1604 -0.7828
vn 0.1509 -0.9848 -0.0859
vn 0.1876 -0.9731 -0.1340
vn 0.1426 -0.9788 -0.1467
vn 0.1022 -0.9870 -0.1238
vn 0.0902 -0.9928 -0.0785
vn 0.1136 -0.9928 -0.0375
vn 0.1586 -0.9870 -0.0248
vn 0.1990 -0.9788 -0.0478
vn 0.2110 -0.9731 -0.0930
vn 0.7987 0.5983 -0.0646
vn 0.6256 0.5150 0.5860
vn 0.0451 0.3972 0.9166
vn -0.6027 0.3139 0.7336
vn -0.9385 0.3139 0.1442
vn -0.7654 0.3972 -0.5064
vn -0.1849 0.5150 -0.8370
vn 0.4630 0.5983 -0.6540
vn 0.3353 -0.8818 -0.3318
vn 0.1015 -0.9118 -0.3979
vn -0.1080 -0.9543 -0.2785
vn -0.1705 -0.9844 -0.0438
vn -0.0493 -0.9844 0.1690
vn 0.1845 -0.9543 0.2350
vn 0.3940 -0.9118 0.1157
vn 0.4564 -0.8818 -0.1191
s off
f 2/1/1 18/2/1 17/3/1
f 4/4/2 19/5/2 18/2/2
f 6/6/3 20/7/3 19/5/3
f 8/8/4 21/9/4 20/7/4
f 10/10/5 22/11/5 21/9/5
f 12/12/6 23/13/6 22/11/6
f 10/10/7 8/14/7 6/15/7
f 14/16/8 24/17/8 23/13/8
f 16/18/9 17/3/9 24/19/9
f 7/20/10 11/21/10 15/22/10
f 40/23/11 17/3/11 33/24/11
f 39/25/12 24/17/12 40/26/12
f 22/11/13 39/27/13 38/28/13
f 21/9/14 38/29/14 37/30/14
f 36/31/15 21/9/15 37/32/15
f 35/33/16 20/7/16 36/34/16
f 34/35/17 19/5/17 35/36/17
f 17/3/18 34/37/18 33/38/18
f 32/39/1 41/40/1 48/41/1
f 25/42/2 42/43/2 41/40/2
f 26/44/3 43/45/3 42/43/3
f 27/46/4 44/47/4 43/45/4
f 28/48/5 45/49/5 44/47/5
f 29/50/6 46/51/6 45/49/6
f 30/52/8 47/53/8 46/51/8
f 31/54/9 48/41/9 47/55/9
f 33/56/19 25/42/19 32/39/19
f 34/57/20 26/44/20 25/42/20
f 35/58/21 27/46/21 26/44/21
f 36/59/22 28/48/22 27/46/22
f 37/60/23 29/50/23 28/48/23
f 38/61/24 30/52/24 29/50/24
f 39/62/25 31/63/25 30/52/25
f 40/64/26 32/39/26 31/54/26
f 15/22/27 48/41/27 1/65/27
f 46/51/28 15/66/28 13/67/28
f 45/49/29 13/68/29 11/69/29
f 44/47/30 11/70/30 9/71/30
f 7/72/31 44/47/31 9/73/31
f 42/43/32 7/74/32 5/75/32
f 41/40/33 5/76/33 3/77/33
f 48/41/34 3/78/34 1/79/34
f 2/1/1 4/4/1 18/2/1
f 4/4/2 6/6/2 19/5/2
f 6/6/3 8/8/3 20/7/3
f 8/8/4 10/10/4 21/9/4
f 10/10/5 12/12/5 22/11/5
f 12/12/6 14/16/6 23/13/6
f 6/15/7 4/80/7 14/81/7
f 4/80/7 2/82/7 14/81/7
f 2/82/7 16/83/7 14/81/7
f 14/81/7 12/12/7 6/15/7
f 12/12/7 10/10/7 6/15/7
f 14/16/8 16/84/8 24/17/8
f 16/18/9 2/1/9 17/3/9
f 15/22/10 1/65/10 3/85/10
f 3/85/10 5/86/10 7/20/10
f 7/20/10 9/87/10 11/21/10
f 11/21/10 13/88/10 15/22/10
f 15/22/10 3/85/10 7/20/10
f 40/23/11 24/19/11 17/3/11
f 39/25/12 23/13/12 24/17/12
f 22/11/13 23/13/13 39/27/13
f 21/9/14 22/11/14 38/29/14
f 36/31/15 20/7/15 21/9/15
f 35/33/16 19/5/16 20/7/16
f 34/35/17 18/2/17 19/5/17
f 17/3/18 18/2/18 34/37/18
f 32/39/1 25/42/1 41/40/1
f 25/42/2 26/44/2 42/43/2
f 26/44/3 27/46/3 43/45/3
f 27/46/4 28/48/4 44/47/4
f 28/48/5 29/50/5 45/49/5
f 29/50/6 30/52/6 46/51/6
f 30/52/8 31/63/8 47/53/8
f 31/54/9 32/39/9 48/41/9
f 33/56/19 34/89/19 25/42/19
f 34/57/20 35/90/20 26/44/20
f 35/58/21 36/91/21 27/46/21
f 36/59/22 37/92/22 28/48/22
f 37/60/23 38/93/23 29/50/23
f 38/61/24 39/94/24 30/52/24
f 39/62/25 40/95/25 31/63/25
f 40/64/26 33/96/26 32/39/26
f 15/22/27 47/55/27 48/41/27
f 46/51/28 47/53/28 15/66/28
f 45/49/29 46/51/29 13/68/29
f 44/47/30 45/49/30 11/70/30
f 7/72/31 43/45/31 44/47/31
f 42/43/32 43/45/32 7/74/32
f 41/40/33 42/43/33 5/76/33
f 48/41/34 41/40/34 3/78/34
