# Blender v3.0.0 OBJ File: 'Map.blend'
# www.blender.org
o ItemCliff.002_Cylinder.006
v 25.321918 -0.025592 12.634837
v 24.355787 1.166360 11.610014
v 23.342318 1.161654 11.929115
v 23.349203 -0.025592 13.384654
v 22.523779 1.165298 11.437572
v 21.424082 -0.025593 12.519934
v 22.277382 1.178203 10.586102
v 20.674265 -0.025593 10.547217
v 22.651297 1.183332 9.801979
v 21.538986 -0.025593 8.622096
v 23.456085 1.178203 9.474903
v 23.511702 -0.025593 7.872279
v 24.291561 1.165298 9.771029
v 25.436823 -0.025593 8.737000
v 22.569939 1.803653 11.255070
v 22.326624 1.878488 10.487987
v 24.734035 1.161654 10.617101
v 26.186640 -0.025592 10.709716
v 24.470413 1.721298 10.579142
v 24.106657 1.803653 9.806359
v 24.220320 2.897901 9.537091
v 24.665373 2.897901 10.489000
v 23.355238 1.878488 9.518280
v 22.649046 1.906123 9.799590
v 23.319952 1.721298 11.663716
v 24.145275 1.686126 11.386714
v 22.419992 2.897901 9.556623
v 22.008837 2.897901 10.407146
v 21.796232 3.902942 10.394150
v 22.262857 3.862516 9.392364
v 23.293257 2.897901 9.196283
v 22.294445 2.897901 11.352673
v 24.251198 2.897901 11.499070
v 23.218483 2.897901 11.853026
v 24.411894 3.892472 11.670246
v 24.890394 3.905054 10.489433
v 25.415873 4.933119 10.262447
v 24.615587 4.888295 11.998838
v 23.205660 3.905054 12.077683
v 22.129725 3.905053 11.495079
v 24.372482 3.904012 9.380760
v 23.292498 3.892439 8.979322
v 23.510929 4.908525 8.500803
v 22.036909 4.780334 9.206243
v 21.321514 6.588221 8.084956
v 24.125376 6.373107 7.118719
v 24.905750 4.905194 8.865350
v 21.319040 4.943208 10.590524
v 22.950701 5.002200 12.535044
v 21.636654 4.996293 11.948069
v 20.663553 6.189631 9.905220
v 20.807304 6.456963 12.198668
v 20.287857 7.573400 12.731652
v 19.496080 7.891946 9.914829
v 25.535435 6.640933 12.311991
v 22.622591 6.100600 13.005075
v 26.089542 6.524962 10.459654
v 25.718391 6.413671 8.088413
v 27.385456 7.851447 10.267315
v 26.137245 7.965142 7.209080
v 26.127155 8.751694 7.558555
v 27.700340 8.634731 10.653994
v 25.967510 7.766217 13.019953
v 23.058456 7.696224 14.040956
v 23.171278 8.025302 6.058492
v 20.600847 8.004761 7.330715
v 23.129461 8.840844 6.248056
v 23.160475 9.192151 6.696537
v 25.833158 9.112641 7.864794
v 20.420773 8.860810 7.145387
v 20.327129 8.699932 12.732044
v 19.260981 8.806307 9.698535
v 26.353588 8.629529 13.348408
v 23.342251 8.595865 14.541180
v 23.350189 8.973789 14.089978
v 26.142733 8.969877 13.215670
v 25.979504 9.323407 13.095407
v 23.357618 9.348231 13.776824
v 19.711658 9.161374 9.772801
v 20.745762 9.209991 7.496758
v 20.661963 9.066494 12.477381
v 27.235252 9.008459 10.624591
v 26.911133 9.379942 10.607170
v 23.184093 9.547960 7.014331
v 25.628693 9.475234 8.082890
v 20.029594 9.519810 9.828071
v 20.975451 9.564277 7.746263
v 20.898802 9.433025 12.301844
vt 0.159948 0.181307
vt 0.242539 0.004370
vt 0.159948 0.004370
vt 0.242539 0.181307
vt 0.322842 0.004370
vt 0.000175 0.182642
vt 0.071150 0.001407
vt 0.000174 0.001407
vt 0.071150 0.182642
vt 0.136928 0.001407
vt 0.206905 0.182642
vt 0.206905 0.001407
vt 0.277881 0.182642
vt 0.277881 0.001407
vt 0.000175 0.244653
vt 0.071150 0.244653
vt 0.001773 0.004370
vt 0.082076 0.181307
vt 0.082076 0.004370
vt 0.579166 0.529894
vt 0.579311 0.739865
vt 0.535752 0.634909
vt 0.001773 0.241848
vt 0.082076 0.345132
vt 0.082076 0.241848
vt 0.277881 0.244653
vt 0.136928 0.182642
vt 0.136928 0.244653
vt 0.001773 0.181307
vt 0.322842 0.181307
vt 0.242539 0.241848
vt 0.322842 0.241848
vt 0.206905 0.244653
vt 0.159948 0.241848
vt 0.071150 0.350445
vt 0.136928 0.445912
vt 0.136928 0.350445
vt 0.206905 0.350445
vt 0.000175 0.350445
vt 0.159948 0.345132
vt 0.242539 0.345132
vt 0.277881 0.350445
vt 0.322842 0.345132
vt 0.082076 0.438335
vt 0.159948 0.543767
vt 0.159948 0.438335
vt 0.322842 0.438335
vt 0.001773 0.438335
vt 0.206905 0.445912
vt 0.071150 0.445912
vt 0.242539 0.438335
vt 0.277881 0.445912
vt 0.206905 0.553904
vt 0.136928 0.722834
vt 0.206905 0.722834
vt 0.277881 0.553904
vt 0.136928 0.553904
vt 0.242539 0.543767
vt 0.322842 0.543767
vt 0.082076 0.543767
vt 0.000175 0.445912
vt 0.071150 0.553904
vt 0.000175 0.722834
vt 0.071150 0.890777
vt 0.071150 0.722834
vt 0.242539 0.708691
vt 0.159948 0.708691
vt 0.277881 0.722834
vt 0.322842 0.708691
vt 0.001773 0.543767
vt 0.082076 0.708691
vt 0.082076 0.872651
vt 0.001773 0.960209
vt 0.082076 0.960209
vt 0.242539 0.872651
vt 0.159948 0.872651
vt 0.277881 0.890777
vt 0.136928 0.890777
vt 0.322842 0.872651
vt 0.001773 0.708691
vt 0.206905 0.890777
vt 0.690145 0.023678
vt 0.836181 0.125761
vt 0.687752 0.055789
vt 0.206905 0.980461
vt 0.000175 0.980461
vt 0.071150 0.980461
vt 0.242539 0.960209
vt 0.159948 0.960209
vt 0.277881 0.980461
vt 0.136928 0.980461
vt 0.322842 0.960209
vt 0.516181 0.384464
vt 0.476481 0.239923
vt 0.537308 0.364944
vt 0.859150 0.404731
vt 0.891426 0.255644
vt 0.925783 0.256534
vt 0.684912 0.473496
vt 0.683976 0.440981
vt 0.520670 0.098105
vt 0.496508 0.073043
vt 0.861661 0.104667
vt 0.834213 0.382034
vt 0.491075 0.407830
vt 0.453448 0.237130
vt 0.428982 0.233567
vt 0.539388 0.118353
vt 0.815180 0.143355
vt 0.685515 0.083539
vt 0.864369 0.255037
vt 0.683239 0.412922
vt 0.813812 0.363280
vt 0.684122 0.486335
vt 0.684327 0.783279
vt 0.832697 0.634705
vt 0.789283 0.739720
vt 0.789138 0.529749
vt 0.001773 0.345132
vt 0.000175 0.553904
vt 0.000175 0.890777
vt 0.001773 0.872651
vn 0.2177 0.7486 0.6263
vn 0.2232 0.7459 0.6276
vn 0.2400 0.7374 0.6314
vn -0.2955 0.7634 0.5744
vn -0.2883 0.7573 0.5859
vn -0.2734 0.7447 0.6088
vn -0.5981 0.7743 0.2068
vn -0.5999 0.7704 0.2157
vn -0.6025 0.7645 0.2290
vn -0.5715 0.7777 -0.2618
vn -0.5734 0.7768 -0.2605
vn -0.5760 0.7754 -0.2587
vn -0.2263 0.7767 -0.5878
vn -0.2277 0.7777 -0.5859
vn -0.2243 0.7754 -0.5902
vn 0.2507 0.7704 -0.5862
vn 0.2416 0.7743 -0.5849
vn 0.2641 0.7645 -0.5880
vn -0.9468 0.1263 0.2960
vn -0.9476 0.1318 0.2912
vn -0.9443 0.1099 0.3102
vn 0.6019 0.7573 -0.2533
vn 0.5908 0.7634 -0.2612
vn 0.6238 0.7447 -0.2371
vn 0.6133 0.7459 0.2598
vn 0.6124 0.7486 0.2542
vn 0.6162 0.7374 0.2768
vn 0.0000 -1.0000 0.0000
vn 0.8853 -0.1863 -0.4260
vn 0.8861 -0.1883 -0.4234
vn 0.8826 -0.1795 -0.4346
vn 0.3513 0.1263 -0.9277
vn 0.3465 0.1318 -0.9288
vn 0.3324 0.1478 -0.9315
vn -0.9042 -0.0007 -0.4272
vn -0.9039 -0.0001 -0.4277
vn -0.9055 -0.0042 -0.4243
vn 0.8611 0.3095 -0.4035
vn 0.8486 0.3291 -0.4143
vn 0.8272 0.3604 -0.4311
vn -0.4535 0.3095 0.8358
vn -0.4635 0.3291 0.8227
vn -0.4362 0.2764 0.8563
vn -0.3732 -0.0007 -0.9278
vn -0.3737 -0.0001 -0.9275
vn -0.3765 0.0032 -0.9264
vn 0.8328 0.4377 0.3388
vn 0.8299 0.4524 0.3265
vn 0.8261 0.4689 0.3125
vn 0.2892 0.4377 0.8513
vn 0.2771 0.4524 0.8477
vn 0.3050 0.4180 0.8557
vn -0.8863 -0.2041 -0.4158
vn -0.8861 -0.2043 -0.4160
vn -0.8791 -0.2156 -0.4250
vn -0.3634 -0.3004 -0.8819
vn -0.3635 -0.3003 -0.8818
vn -0.3631 -0.3006 -0.8819
vn -0.9257 -0.2612 0.2735
vn -0.9250 -0.2623 0.2748
vn -0.9229 -0.2656 0.2788
vn 0.3163 -0.1186 0.9412
vn 0.3177 -0.1198 0.9406
vn 0.3218 -0.1233 0.9388
vn 0.9209 -0.1186 0.3712
vn 0.9202 -0.1198 0.3725
vn 0.9232 -0.1147 0.3667
vn 0.3276 -0.2612 -0.9080
vn 0.3288 -0.2623 -0.9072
vn 0.3234 -0.2576 -0.9105
vn -0.8589 -0.3004 -0.4148
vn -0.8589 -0.3003 -0.4149
vn -0.8588 -0.3001 -0.4152
vn -0.4774 -0.1863 0.8587
vn -0.4749 -0.1883 0.8597
vn -0.4671 -0.1945 0.8626
vn 0.8642 -0.3349 0.3755
vn 0.8715 -0.3230 0.3691
vn 0.8856 -0.2985 0.3557
vn -0.4667 -0.1982 0.8619
vn 0.8880 -0.1985 -0.4149
vn 0.8881 -0.1982 -0.4147
vn -0.3658 -0.2062 -0.9076
vn -0.3659 -0.2064 -0.9074
vn -0.3599 -0.1991 -0.9115
vn -0.9389 -0.1943 0.2842
vn -0.9389 -0.1944 0.2842
vn -0.9389 -0.1950 0.2836
vn 0.3138 -0.2067 0.9267
vn 0.3144 -0.2060 0.9267
vn 0.3175 -0.2026 0.9264
vn 0.9066 -0.2065 0.3680
vn 0.9065 -0.2059 0.3686
vn 0.9070 -0.2094 0.3653
vn 0.3410 -0.1973 -0.9191
vn 0.3409 -0.1975 -0.9191
vn 0.3436 -0.1947 -0.9187
vn -0.3057 -0.5845 -0.7516
vn -0.3058 -0.5847 -0.7514
vn -0.3043 -0.5831 -0.7532
vn 0.2572 -0.5025 -0.8254
vn 0.2628 -0.4984 -0.8262
vn 0.2125 -0.5344 -0.8181
vn -0.8620 -0.3083 -0.4024
vn -0.8642 -0.3049 -0.4003
vn -0.8708 -0.2942 -0.3938
vn -0.3883 -0.4641 0.7961
vn -0.3915 -0.4616 0.7960
vn -0.3536 -0.4904 0.7965
vn 0.7881 -0.5284 -0.3159
vn 0.7888 -0.5231 -0.3229
vn 0.7918 -0.4863 -0.3694
vn -0.3741 -0.3052 -0.8757
vn -0.3682 -0.2954 -0.8815
vn -0.3853 -0.3241 -0.8640
vn -0.8551 -0.4609 0.2373
vn -0.8553 -0.4600 0.2385
vn -0.8579 -0.4428 0.2607
vn 0.2800 -0.3292 0.9018
vn 0.2846 -0.3362 0.8978
vn 0.2712 -0.3160 0.9092
vn -0.8423 -0.5146 0.1603
vn -0.8319 -0.5368 0.1403
vn -0.8187 -0.5622 0.1168
vn -0.8774 -0.4558 0.1499
vn -0.8716 -0.4636 0.1591
vn -0.9028 -0.4170 0.1052
vn 0.2735 -0.3071 0.9116
vn 0.2731 -0.3076 0.9115
vn 0.2724 -0.3086 0.9113
vn 0.8355 -0.4451 0.3221
vn 0.8343 -0.4466 0.3234
vn 0.7997 -0.4834 0.3561
vn 0.2946 -0.6627 -0.6885
vn 0.3276 -0.6461 -0.6894
vn 0.4322 -0.5859 -0.6855
vn -0.7512 -0.5546 -0.3578
vn -0.7577 -0.5345 -0.3745
vn -0.7504 -0.5478 -0.3699
vn -0.4086 -0.4138 0.8135
vn -0.3996 -0.4221 0.8137
vn -0.4367 -0.3873 0.8120
vn 0.8729 -0.4484 -0.1926
vn 0.8746 -0.4410 -0.2014
vn 0.8869 -0.3360 -0.3171
vn 0.8908 -0.0930 -0.4447
vn 0.9150 0.1337 -0.3806
vn 0.8818 -0.1308 -0.4531
vn 0.2835 -0.5825 0.7617
vn 0.2866 -0.5785 0.7637
vn 0.2888 -0.5756 0.7651
vn 0.7478 -0.5711 0.3386
vn 0.7339 -0.6072 0.3045
vn 0.7612 -0.5286 0.3757
vn 0.3753 -0.4275 -0.8224
vn 0.3960 -0.4552 -0.7975
vn 0.4510 -0.5291 -0.7188
vn -0.7560 -0.5405 -0.3691
vn -0.7494 -0.5650 -0.3451
vn -0.3852 -0.4624 0.7986
vn -0.4014 -0.4930 0.7719
vn -0.4276 -0.5437 0.7222
vn 0.8074 -0.5233 -0.2725
vn 0.7723 -0.6059 -0.1911
vn 0.7075 -0.7024 -0.0778
vn -0.3348 -0.5970 -0.7290
vn -0.3176 -0.6123 -0.7241
vn -0.2956 -0.6310 -0.7173
vn 0.2858 0.7446 -0.6032
vn 0.2858 0.7447 -0.6031
vn -0.3334 -0.1879 -0.9239
vn -0.4202 0.1034 -0.9015
vn -0.4373 0.1823 -0.8806
vn -0.9410 -0.1263 0.3138
vn -0.9588 -0.0043 0.2841
vn -0.9325 -0.1636 0.3220
vn 0.3240 -0.4750 0.8182
vn 0.2992 -0.5201 0.8000
vn 0.2915 -0.5334 0.7940
vn 0.7771 -0.4963 0.3870
vn 0.7758 -0.5001 0.3846
vn 0.7775 -0.4952 0.3877
vn 0.3770 0.3572 -0.8545
vn 0.3607 0.2543 -0.8973
vn 0.3800 0.3796 -0.8435
vn -0.8731 -0.2798 -0.3993
vn -0.8692 -0.3061 -0.3882
vn -0.8742 -0.2711 -0.4029
vn -0.4905 -0.2439 0.8366
vn -0.4452 -0.0453 0.8943
vn -0.4277 0.0146 0.9038
vn 0.2093 0.6069 0.7667
vn 0.2661 0.4396 0.8579
vn 0.2017 0.6260 0.7533
vn -0.5749 0.7809 -0.2445
vn -0.5748 0.7809 -0.2444
vn -0.3359 0.7248 0.6016
vn -0.3358 0.7250 0.6014
vn 0.6119 0.7386 -0.2830
vn 0.6116 0.7388 -0.2829
vn 0.6116 0.7389 -0.2829
vn -0.1920 0.7790 -0.5969
vn -0.1920 0.7791 -0.5968
vn -0.1921 0.7790 -0.5969
vn -0.6247 0.7413 0.2455
vn -0.6246 0.7414 0.2455
vn 0.2111 0.7286 0.6516
vn 0.3032 0.5318 0.7907
vn 0.1987 0.7496 0.6314
vn 0.7251 0.6100 0.3196
vn 0.6008 0.7419 0.2977
vn 0.7434 0.5862 0.3222
vn 0.0170 0.9994 0.0291
vn 0.8042 0.5034 0.3160
vn 0.7193 0.6218 0.3097
vn 0.8157 0.4843 0.3164
vn 0.3307 0.6164 -0.7147
vn -0.6903 0.6585 -0.2996
vn -0.3991 0.5929 0.6994
vn 0.7162 0.6089 -0.3409
vn -0.2330 0.6564 -0.7176
vn -0.2329 0.6564 -0.7176
vn -0.7390 0.6122 0.2812
vn 0.1916 0.7610 0.6198
vn -0.3186 0.7816 0.5363
vn -0.5931 0.7839 0.1835
vn -0.5667 0.7801 -0.2651
vn -0.2313 0.7801 -0.5813
vn 0.2181 0.7839 -0.5813
vn -0.9494 0.1478 0.2770
vn 0.5541 0.7816 -0.2864
vn 0.6075 0.7610 0.2278
vn 0.8886 -0.1945 -0.4154
vn 0.3653 0.1099 -0.9244
vn -0.9026 0.0032 -0.4304
vn 0.8806 0.2764 -0.3850
vn -0.4790 0.3604 0.8004
vn -0.3702 -0.0042 -0.9289
vn 0.8363 0.4180 0.3549
vn 0.2633 0.4689 0.8431
vn -0.8922 -0.1940 -0.4078
vn -0.3639 -0.3001 -0.8818
vn -0.9280 -0.2576 0.2692
vn 0.3117 -0.1147 0.9432
vn 0.9182 -0.1233 0.3765
vn 0.3327 -0.2656 -0.9049
vn -0.8590 -0.3006 -0.4144
vn -0.4858 -0.1795 0.8554
vn 0.8537 -0.3515 0.3844
vn 0.8878 -0.1988 -0.4151
vn -0.3726 -0.2144 -0.9029
vn -0.9388 -0.1938 0.2848
vn 0.3109 -0.2098 0.9270
vn 0.9061 -0.2026 0.3715
vn 0.3380 -0.2003 -0.9196
vn -0.3076 -0.5865 -0.7493
vn 0.3139 -0.4589 -0.8312
vn -0.8569 -0.3162 -0.4072
vn -0.4297 -0.4307 0.7936
vn 0.7828 -0.5584 -0.2747
vn -0.3519 -0.2685 -0.8967
vn -0.8522 -0.4756 0.2180
vn 0.2961 -0.3534 0.8874
vn -0.8542 -0.4858 0.1852
vn -0.8330 -0.5098 0.2148
vn 0.2738 -0.3066 0.9116
vn 0.8694 -0.4033 0.2853
vn 0.1755 -0.7136 -0.6782
vn -0.7529 -0.5735 -0.3230
vn -0.3613 -0.4560 0.8134
vn 0.8506 -0.5144 -0.1090
vn 0.9139 0.1746 -0.3665
vn 0.2809 -0.5860 0.7601
vn 0.7100 -0.6569 0.2535
vn 0.3299 -0.3675 -0.8696
vn -0.3694 -0.4329 0.8223
vn 0.8320 -0.4260 -0.3554
vn -0.3594 -0.5744 -0.7354
vn -0.3052 -0.2624 -0.9154
vn -0.9612 0.0334 0.2740
vn 0.3312 -0.4613 0.8231
vn 0.7755 -0.5013 0.3839
vn 0.3561 0.2288 -0.9060
vn -0.8679 -0.3142 -0.3848
vn -0.4990 -0.2956 0.8146
vn 0.2717 0.4200 0.8659
vn -0.5749 0.7808 -0.2445
vn -0.3358 0.7250 0.6013
vn 0.6119 0.7385 -0.2830
vn -0.1919 0.7791 -0.5967
vn -0.6247 0.7412 0.2455
vn 0.3125 0.5069 0.8033
vn 0.5871 0.7539 0.2949
vn 0.7095 0.6335 0.3086
s 1
f 2/1/1 4/2/2 1/3/3
f 3/4/4 6/5/5 4/2/6
f 5/6/7 8/7/8 6/8/9
f 7/9/10 10/10/11 8/7/12
f 10/10/13 11/11/14 12/12/15
f 12/12/16 13/13/17 14/14/18
f 7/9/19 15/15/20 16/16/21
f 14/17/22 17/18/23 18/19/24
f 18/19/25 2/1/26 1/3/27
f 12/20/28 8/21/28 10/22/28
f 20/23/29 22/24/30 19/25/31
f 11/11/32 20/26/33 13/13/34
f 9/27/35 16/16/36 24/28/37
f 13/29/38 19/25/39 17/18/40
f 5/30/41 25/31/42 15/32/43
f 9/27/44 23/33/45 11/11/46
f 17/18/47 26/34/48 2/1/49
f 3/4/50 26/34/51 25/31/52
f 28/35/53 30/36/54 27/37/55
f 24/28/56 31/38/57 23/33/58
f 16/16/59 32/39/60 28/35/61
f 25/31/62 33/40/63 34/41/64
f 19/25/65 33/40/66 26/34/67
f 23/33/68 21/42/69 20/26/70
f 24/28/71 28/35/72 27/37/73
f 15/32/74 34/41/75 32/43/76
f 36/44/77 38/45/78 35/46/79
f 34/41/80 40/47/80 32/43/80
f 22/24/81 41/48/81 36/44/82
f 31/38/83 30/36/84 42/49/85
f 32/39/86 29/50/87 28/35/88
f 33/40/89 39/51/90 34/41/91
f 33/40/92 36/44/93 35/46/94
f 21/42/95 42/49/96 41/52/97
f 43/53/98 45/54/99 46/55/100
f 41/52/101 43/53/102 47/56/103
f 29/50/104 44/57/105 30/36/106
f 40/47/107 49/58/108 50/59/109
f 41/48/110 37/60/111 36/44/112
f 42/49/113 44/57/114 43/53/115
f 40/61/116 48/62/117 29/50/118
f 39/51/119 38/45/120 49/58/121
f 52/63/122 54/64/123 51/65/124
f 48/62/125 52/63/126 51/65/127
f 38/45/128 56/66/129 49/58/130
f 37/60/131 55/67/132 38/45/133
f 47/56/134 46/55/135 58/68/136
f 44/57/137 51/65/138 45/54/139
f 50/59/140 56/66/141 52/69/142
f 47/70/143 57/71/144 37/60/145
f 59/72/146 61/73/147 62/74/148
f 55/67/149 64/75/150 56/66/151
f 55/67/152 59/72/153 63/76/154
f 46/55/155 60/77/156 58/68/157
f 45/54/139 54/64/158 66/78/159
f 56/66/160 53/79/161 52/69/162
f 58/80/163 59/72/164 57/71/165
f 45/54/166 65/81/167 46/55/168
f 61/82/169 68/83/170 69/84/169
f 66/78/171 67/85/172 65/81/173
f 54/64/174 71/86/175 72/87/176
f 63/76/177 74/88/178 64/75/179
f 63/76/180 62/74/181 73/89/182
f 60/77/183 67/85/184 61/90/185
f 66/78/186 72/87/187 70/91/188
f 64/75/189 71/92/190 53/79/191
f 75/93/192 77/94/193 78/95/194
f 72/96/195 80/97/196 70/98/196
f 71/99/197 75/93/198 81/100/197
f 61/82/199 82/101/200 62/102/201
f 67/103/202 80/97/203 68/83/204
f 71/99/205 79/104/206 72/96/206
f 74/105/207 76/106/208 75/93/209
f 73/107/210 82/101/211 76/106/212
f 78/95/213 77/94/213 83/108/213
f 76/106/214 83/108/215 77/94/216
f 69/84/217 84/109/217 85/110/217
f 79/104/218 87/111/218 80/97/218
f 81/100/219 78/95/219 88/112/219
f 69/84/220 83/108/220 82/101/220
f 68/83/221 87/111/222 84/109/221
f 81/100/223 86/113/223 79/104/223
f 86/113/213 84/109/213 87/111/213
f 78/95/213 85/110/213 88/112/213
f 88/112/213 84/109/213 86/113/213
f 8/21/28 14/114/28 6/115/28
f 1/116/28 4/117/28 18/118/28
f 6/115/28 18/118/28 4/117/28
f 2/1/1 3/4/224 4/2/2
f 3/4/4 5/30/225 6/5/5
f 5/6/7 7/9/226 8/7/8
f 7/9/10 9/27/227 10/10/11
f 10/10/13 9/27/228 11/11/14
f 12/12/16 11/11/229 13/13/17
f 7/9/19 5/6/230 15/15/20
f 14/17/22 13/29/231 17/18/23
f 18/19/25 17/18/232 2/1/26
f 20/23/29 21/119/233 22/24/30
f 11/11/32 23/33/234 20/26/33
f 9/27/35 7/9/235 16/16/36
f 13/29/38 20/23/236 19/25/39
f 5/30/41 3/4/237 25/31/42
f 9/27/44 24/28/238 23/33/45
f 17/18/47 19/25/239 26/34/48
f 3/4/50 2/1/240 26/34/51
f 28/35/53 29/50/241 30/36/54
f 24/28/56 27/37/242 31/38/57
f 16/16/59 15/15/243 32/39/60
f 25/31/62 26/34/244 33/40/63
f 19/25/65 22/24/245 33/40/66
f 23/33/68 31/38/246 21/42/69
f 24/28/71 16/16/247 28/35/72
f 15/32/74 25/31/248 34/41/75
f 36/44/77 37/60/249 38/45/78
f 34/41/80 39/51/80 40/47/80
f 22/24/81 21/119/250 41/48/81
f 31/38/83 27/37/251 30/36/84
f 32/39/86 40/61/252 29/50/87
f 33/40/89 35/46/253 39/51/90
f 33/40/92 22/24/254 36/44/93
f 21/42/95 31/38/255 42/49/96
f 43/53/98 44/57/256 45/54/99
f 41/52/101 42/49/257 43/53/102
f 29/50/104 48/62/258 44/57/105
f 40/47/107 39/51/259 49/58/108
f 41/48/110 47/70/260 37/60/111
f 42/49/113 30/36/261 44/57/114
f 40/61/116 50/120/262 48/62/117
f 39/51/119 35/46/263 38/45/120
f 52/63/122 53/121/264 54/64/123
f 48/62/125 50/120/265 52/63/126
f 38/45/128 55/67/266 56/66/129
f 37/60/131 57/71/267 55/67/132
f 47/56/134 43/53/268 46/55/135
f 44/57/137 48/62/269 51/65/138
f 50/59/140 49/58/270 56/66/141
f 47/70/143 58/80/271 57/71/144
f 59/72/146 60/122/272 61/73/147
f 55/67/149 63/76/273 64/75/150
f 55/67/152 57/71/274 59/72/153
f 46/55/155 65/81/275 60/77/156
f 45/54/139 51/65/138 54/64/158
f 56/66/160 64/75/276 53/79/161
f 58/80/163 60/122/277 59/72/164
f 45/54/166 66/78/278 65/81/167
f 61/82/169 67/103/170 68/83/170
f 66/78/171 70/91/279 67/85/172
f 54/64/174 53/121/280 71/86/175
f 63/76/177 73/89/281 74/88/178
f 63/76/180 59/72/282 62/74/181
f 60/77/183 65/81/283 67/85/184
f 66/78/186 54/64/284 72/87/187
f 64/75/189 74/88/285 71/92/190
f 75/93/192 76/106/286 77/94/193
f 72/96/195 79/104/287 80/97/196
f 71/99/197 74/105/288 75/93/198
f 61/82/199 69/84/289 82/101/200
f 67/103/202 70/98/290 80/97/203
f 71/99/205 81/100/291 79/104/206
f 74/105/207 73/107/292 76/106/208
f 73/107/210 62/102/293 82/101/211
f 76/106/214 82/101/294 83/108/215
f 69/84/217 68/83/217 84/109/217
f 79/104/218 86/113/218 87/111/218
f 81/100/219 75/93/219 78/95/219
f 69/84/220 85/110/220 83/108/220
f 68/83/221 80/97/222 87/111/222
f 81/100/223 88/112/223 86/113/223
f 78/95/213 83/108/213 85/110/213
f 88/112/213 85/110/213 84/109/213
f 8/21/28 12/20/28 14/114/28
f 6/115/28 14/114/28 18/118/28
